<svg width="148" height="135" viewBox="0 0 148 135" fill="none" xmlns="http://www.w3.org/2000/svg">
<path d="M88.2247 134.808H85.5382C85.2004 134.807 84.8766 134.666 84.6377 134.413C84.3989 134.161 84.2645 133.819 84.2642 133.462V109.802C84.2645 109.445 84.3989 109.103 84.6377 108.85C84.8766 108.598 85.2004 108.456 85.5382 108.456H88.2247C88.5625 108.456 88.8863 108.598 89.1252 108.85C89.364 109.103 89.4984 109.445 89.4988 109.802V133.462C89.4984 133.819 89.364 134.161 89.1252 134.413C88.8863 134.666 88.5625 134.807 88.2247 134.808Z" fill="#C9070C"/>
<path d="M82.5474 134.808H79.861C79.5232 134.807 79.1994 134.666 78.9605 134.413C78.7216 134.161 78.5873 133.819 78.5869 133.462V109.802C78.5873 109.445 78.7216 109.103 78.9605 108.85C79.1994 108.598 79.5232 108.456 79.861 108.456H82.5474C82.8852 108.456 83.209 108.598 83.4479 108.85C83.6867 109.103 83.8211 109.445 83.8215 109.802V133.462C83.8211 133.819 83.6867 134.161 83.4479 134.413C83.209 134.666 82.8852 134.807 82.5474 134.808Z" fill="#C9070C"/>
<path d="M11.7952 58.2464C11.2513 60.6528 10.5644 61.2256 9.91368 61.0614C9.26301 60.8972 8.89506 60.0582 9.43891 57.6518C9.98276 55.2453 11.8831 52.3468 11.8831 52.3468C11.8831 52.3468 12.339 55.8399 11.7952 58.2464Z" fill="#CCCCCC"/>
<path d="M10.339 100.175C9.79517 102.581 9.10818 103.154 8.45751 102.99C7.80684 102.826 7.43889 101.987 7.98273 99.5801C8.52658 97.1736 10.4269 94.2751 10.4269 94.2751C10.4269 94.2751 10.8829 97.7682 10.339 100.175Z" fill="#CCCCCC"/>
<path d="M90.0279 25.2383C90.0279 25.2383 91.2744 22.4516 89.2601 21.727C87.2458 21.0025 87.3907 23.9211 87.3907 23.9211L89.841 25.4577" fill="#3F3D56"/>
<path d="M47.7037 33.4375L43.5289 37.0136C43.5289 37.0136 106.158 59.2551 113.301 63.6673L112.596 57.4349L106.679 49.8191L95.2168 42.0925L76.7146 36.0104L56.5512 28.348L47.7037 33.4375Z" fill="#C9070C"/>
<path d="M79.6001 42.3309L65.4308 79.6996C65.4308 79.6996 63.1662 85.8875 68.1708 87.0735C71.1797 87.7865 72.7703 85.8577 73.5604 84.2061C74.4043 82.4419 72.1135 80.8906 70.9686 82.4539C70.95 82.4793 70.9314 82.5051 70.9127 82.5315C70.8848 82.571 67.8827 85.0325 67.8845 81.6637C67.8918 80.887 68.0443 80.1195 68.333 79.4052L82.258 44.0651L79.6001 42.3309Z" fill="#3F3D56"/>
<path d="M88.5899 23.6522C88.5899 23.6522 84.6027 23.037 82.3601 21.698C82.3601 21.698 57.7523 16.1633 43.5443 36.8104C43.5443 36.8104 110.432 53.1715 113.316 63.464C113.316 63.464 117.515 44.4171 95.2763 26.8354C95.2763 26.8354 89.8357 24.8374 88.5899 23.6522Z" fill="#3F3D56"/>
<path d="M12.7196 83.033C12.3878 84.5014 11.9686 84.8509 11.5716 84.7507C11.1745 84.6505 10.95 84.1386 11.2818 82.6702C11.6137 81.2017 12.7733 79.4331 12.7733 79.4331C12.7733 79.4331 13.0515 81.5646 12.7196 83.033Z" fill="#CCCCCC"/>
<path d="M2.345 90.1492C2.01315 91.6176 1.59395 91.9671 1.19692 91.8669C0.799885 91.7667 0.575365 91.2548 0.907214 89.7864C1.23906 88.318 2.39865 86.5493 2.39865 86.5493C2.39865 86.5493 2.67686 88.6808 2.345 90.1492Z" fill="#CCCCCC"/>
<path d="M78.5932 20.7416C78.0493 23.1481 77.3623 23.7209 76.7117 23.5567C76.061 23.3925 75.693 22.5535 76.2369 20.147C76.7807 17.7405 78.6811 14.842 78.6811 14.842C78.6811 14.842 79.137 18.3351 78.5932 20.7416Z" fill="#CCCCCC"/>
<path d="M80.9739 3.59988C80.6421 5.0683 80.2229 5.4178 79.8258 5.31761C79.4288 5.21742 79.2043 4.70547 79.5361 3.23705C79.868 1.76863 81.0276 0 81.0276 0C81.0276 0 81.3058 2.13147 80.9739 3.59988Z" fill="#CCCCCC"/>
<path d="M70.5992 10.7162C70.2673 12.1846 69.8481 12.5341 69.4511 12.434C69.054 12.3338 68.8295 11.8218 69.1614 10.3534C69.4932 8.88497 70.6528 7.11633 70.6528 7.11633C70.6528 7.11633 70.931 9.24781 70.5992 10.7162Z" fill="#CCCCCC"/>
<path d="M49.8355 96.1358C49.2916 98.5422 48.6046 99.115 47.954 98.9508C47.3033 98.7866 46.9353 97.9476 47.4792 95.5412C48.023 93.1347 49.9234 90.2362 49.9234 90.2362C49.9234 90.2362 50.3793 93.7293 49.8355 96.1358Z" fill="#CCCCCC"/>
<path d="M52.2161 78.994C51.8842 80.4625 51.465 80.812 51.068 80.7118C50.671 80.6116 50.4465 80.0996 50.7783 78.6312C51.1102 77.1628 52.2697 75.3942 52.2697 75.3942C52.2697 75.3942 52.5479 77.5256 52.2161 78.994Z" fill="#CCCCCC"/>
<path d="M41.8415 86.1103C41.5096 87.5787 41.0904 87.9282 40.6934 87.828C40.2963 87.7278 40.0718 87.2159 40.4037 85.7474C40.7355 84.279 41.8951 82.5104 41.8951 82.5104C41.8951 82.5104 42.1733 84.6419 41.8415 86.1103Z" fill="#CCCCCC"/>
<path d="M39.0968 24.3959C38.553 26.8024 37.866 27.3752 37.2153 27.211C36.5646 27.0468 36.1967 26.2078 36.7405 23.8013C37.2844 21.3948 39.1848 18.4963 39.1848 18.4963C39.1848 18.4963 39.6407 21.9894 39.0968 24.3959Z" fill="#CCCCCC"/>
<path d="M37.6408 66.3242C37.0969 68.7307 36.4099 69.3035 35.7593 69.1393C35.1086 68.9751 34.7406 68.1361 35.2845 65.7296C35.8283 63.3232 37.7287 60.4247 37.7287 60.4247C37.7287 60.4247 38.1846 63.9177 37.6408 66.3242Z" fill="#CCCCCC"/>
<path d="M40.0214 49.1825C39.6895 50.6509 39.2703 51.0004 38.8733 50.9003C38.4763 50.8001 38.2518 50.2881 38.5836 48.8197C38.9155 47.3513 40.075 45.5826 40.075 45.5826C40.075 45.5826 40.3532 47.7141 40.0214 49.1825Z" fill="#CCCCCC"/>
<path d="M29.6466 56.2989C29.3148 57.7673 28.8956 58.1168 28.4986 58.0166C28.1015 57.9164 27.877 57.4044 28.2089 55.936C28.5407 54.4676 29.7003 52.699 29.7003 52.699C29.7003 52.699 29.9785 54.8305 29.6466 56.2989Z" fill="#CCCCCC"/>
<path d="M66.9445 26.1268C66.4006 28.5333 65.7136 29.1061 65.063 28.9419C64.4123 28.7777 64.0444 27.9387 64.5882 25.5323C65.132 23.1258 67.0324 20.2273 67.0324 20.2273C67.0324 20.2273 67.4883 23.7204 66.9445 26.1268Z" fill="#CCCCCC"/>
<path d="M65.4884 68.0553C64.9446 70.4618 64.2576 71.0346 63.6069 70.8704C62.9562 70.7062 62.5883 69.8672 63.1321 67.4607C63.676 65.0543 65.5764 62.1558 65.5764 62.1558C65.5764 62.1558 66.0323 65.6488 65.4884 68.0553Z" fill="#CCCCCC"/>
<path d="M67.8691 50.9135C67.5372 52.3819 67.118 52.7314 66.721 52.6312C66.3239 52.531 66.0994 52.0191 66.4313 50.5506C66.7631 49.0822 67.9227 47.3136 67.9227 47.3136C67.9227 47.3136 68.2009 49.4451 67.8691 50.9135Z" fill="#CCCCCC"/>
<path d="M92.7902 34.2048C92.2463 36.6113 91.5593 37.1841 90.9087 37.0199C90.258 36.8557 89.8901 36.0167 90.4339 33.6103C90.9778 31.2038 92.8781 28.3053 92.8781 28.3053C92.8781 28.3053 93.334 31.7984 92.7902 34.2048Z" fill="#CCCCCC"/>
<path d="M84.7962 24.1794C84.4643 25.6478 84.0451 25.9973 83.6481 25.8971C83.2511 25.7969 83.0265 25.2849 83.3584 23.8165C83.6902 22.3481 84.8498 20.5795 84.8498 20.5795C84.8498 20.5795 85.128 22.7109 84.7962 24.1794Z" fill="#CCCCCC"/>
<path d="M105.713 22.8573C105.169 25.2638 104.482 25.8366 103.832 25.6724C103.181 25.5082 102.813 24.6692 103.357 22.2627C103.901 19.8563 105.801 16.9578 105.801 16.9578C105.801 16.9578 106.257 20.4508 105.713 22.8573Z" fill="#CCCCCC"/>
<path d="M104.257 64.7857C103.713 67.1921 103.026 67.7649 102.375 67.6007C101.725 67.4365 101.357 66.5975 101.9 64.1911C102.444 61.7846 104.345 58.8861 104.345 58.8861C104.345 58.8861 104.801 62.3792 104.257 64.7857Z" fill="#CCCCCC"/>
<path d="M106.637 47.6438C106.306 49.1122 105.886 49.4617 105.489 49.3616C105.092 49.2614 104.868 48.7494 105.2 47.281C105.532 45.8126 106.691 44.0439 106.691 44.0439C106.691 44.0439 106.969 46.1754 106.637 47.6438Z" fill="#CCCCCC"/>
<path d="M131.558 30.9352C131.015 33.3417 130.328 33.9145 129.677 33.7503C129.026 33.5861 128.658 32.7471 129.202 30.3406C129.746 27.9341 131.646 25.0356 131.646 25.0356C131.646 25.0356 132.102 28.5287 131.558 30.9352Z" fill="#CCCCCC"/>
<path d="M123.564 20.9097C123.233 22.3781 122.813 22.7276 122.416 22.6274C122.019 22.5272 121.795 22.0153 122.127 20.5469C122.459 19.0785 123.618 17.3098 123.618 17.3098C123.618 17.3098 123.896 19.4413 123.564 20.9097Z" fill="#CCCCCC"/>
<path d="M120.82 50.3607C120.276 52.7672 119.589 53.34 118.938 53.1758C118.288 53.0116 117.92 52.1726 118.464 49.7661C119.008 47.3597 120.908 44.4612 120.908 44.4612C120.908 44.4612 121.364 47.9543 120.82 50.3607Z" fill="#CCCCCC"/>
<path d="M119.364 92.2891C118.82 94.6956 118.133 95.2683 117.482 95.1042C116.832 94.94 116.464 94.101 117.008 91.6945C117.551 89.288 119.452 86.3895 119.452 86.3895C119.452 86.3895 119.908 89.8826 119.364 92.2891Z" fill="#CCCCCC"/>
<path d="M121.744 75.1474C121.413 76.6158 120.993 76.9653 120.596 76.8651C120.199 76.7649 119.975 76.253 120.307 74.7845C120.638 73.3161 121.798 71.5475 121.798 71.5475C121.798 71.5475 122.076 73.679 121.744 75.1474Z" fill="#CCCCCC"/>
<path d="M146.665 58.4386C146.122 60.8451 145.435 61.4179 144.784 61.2537C144.133 61.0895 143.765 60.2505 144.309 57.844C144.853 55.4376 146.753 52.5391 146.753 52.5391C146.753 52.5391 147.209 56.0321 146.665 58.4386Z" fill="#CCCCCC"/>
<path d="M138.671 48.4132C138.34 49.8817 137.92 50.2312 137.523 50.131C137.126 50.0308 136.902 49.5188 137.234 48.0504C137.565 46.582 138.725 44.8134 138.725 44.8134C138.725 44.8134 139.003 46.9448 138.671 48.4132Z" fill="#CCCCCC"/>
<path d="M85.9098 82.5396C91.0364 82.5396 95.1923 78.148 95.1923 72.7307C95.1923 67.3134 91.0364 62.9218 85.9098 62.9218C80.7831 62.9218 76.6272 67.3134 76.6272 72.7307C76.6272 78.148 80.7831 82.5396 85.9098 82.5396Z" fill="#C9070C"/>
<path d="M78.4404 76.8483C77.8386 76.8306 77.0896 76.8083 76.513 76.3632C76.3412 76.2251 76.2 76.0491 76.0994 75.8473C75.9988 75.6455 75.9411 75.4229 75.9305 75.1951C75.9201 75.0333 75.9453 74.8711 76.004 74.7212C76.0628 74.5713 76.1535 74.4378 76.2692 74.3311C76.5704 74.062 77.0105 73.9989 77.4846 74.1462L76.9934 70.3523L77.354 70.3L77.9316 74.7603L77.6304 74.6143C77.2813 74.4451 76.8021 74.359 76.5041 74.6249C76.431 74.6944 76.374 74.7808 76.3376 74.8773C76.3012 74.9739 76.2864 75.078 76.2943 75.1816C76.3031 75.3511 76.3464 75.5167 76.4212 75.667C76.496 75.8173 76.6005 75.9488 76.7277 76.0525C77.1765 76.3991 77.7735 76.4438 78.4506 76.4639L78.4404 76.8483Z" fill="#2F2E41"/>
<path d="M81.3983 70.6794H79.4377V71.0641H81.3983V70.6794Z" fill="#2F2E41"/>
<path d="M86.5592 62.8927C86.6275 61.7332 86.9307 60.6028 87.4485 59.5779C87.9662 58.553 88.6863 57.6577 89.56 56.9524C90.4626 56.2461 91.5044 55.7638 92.6077 55.5414C93.7111 55.3191 94.8477 55.3623 95.933 55.6681C97.0114 55.9642 98.0121 56.5151 98.8597 57.2793C99.7072 58.0436 100.38 59.0011 100.826 60.0799C101.275 61.1506 101.499 62.3116 101.483 63.4827C101.434 64.7563 101.134 66.0051 100.604 67.1499C100.056 68.4101 99.3661 69.5924 98.7666 70.8243C98.1761 72.039 97.6666 73.2959 97.2418 74.5857C96.3776 77.2138 95.8678 79.9573 95.7272 82.7355C95.5044 87.1151 95.9009 93.5089 100.58 95.1896C101.769 95.617 103.053 95.6966 104.3 95.6931C105.614 95.71 106.924 95.5479 108.199 95.2105C110.408 94.5873 112.505 93.1238 113.446 90.85C113.663 90.325 113.808 89.7701 113.878 89.2019C113.897 89.0461 113.738 88.9149 113.605 88.9134C113.533 88.9152 113.464 88.9462 113.413 88.9999C113.363 89.0536 113.333 89.126 113.332 89.2019C113.027 91.6249 111.116 93.483 109.042 94.3184C107.83 94.7826 106.556 95.0429 105.268 95.0898C103.985 95.1583 102.654 95.1477 101.398 94.8359C100.28 94.5802 99.2628 93.9693 98.483 93.0851C97.7879 92.2395 97.2695 91.2484 96.9615 90.1766C96.223 87.7945 96.1456 85.1755 96.2754 82.6928C96.4222 79.9237 96.9431 77.191 97.8221 74.5777C98.2661 73.2582 98.8017 71.9752 99.4245 70.7391C100.033 69.5301 100.708 68.3552 101.221 67.095C101.721 65.9367 101.996 64.684 102.03 63.4112C102.034 62.2357 101.812 61.0716 101.379 59.989C100.953 58.9021 100.314 57.9228 99.5045 57.1153C98.6948 56.3078 97.7327 55.6904 96.6813 55.3036C95.6116 54.9101 94.4758 54.7574 93.3469 54.8551C92.218 54.9528 91.1209 55.2988 90.126 55.871C89.1796 56.4459 88.3505 57.2133 87.6864 58.1288C87.0224 59.0443 86.5367 60.0899 86.2573 61.2049C86.1216 61.7572 86.0398 62.3228 86.0131 62.8927C85.9951 63.2638 86.5412 63.2628 86.5592 62.8927Z" fill="#2F2E41"/>
<path d="M88.3744 63.0953C88.5234 62.0251 89.0308 61.047 89.8045 60.3386C90.6268 59.6103 91.6809 59.2406 92.7522 59.3048C93.1034 59.3233 93.1025 58.7463 92.7522 58.7278C91.5879 58.6723 90.4449 59.071 89.5406 59.848C88.6364 60.625 88.0339 61.7261 87.8479 62.9419C87.7954 63.3052 88.3215 63.4618 88.3744 63.0953Z" fill="#2F2E41"/>
<path d="M88.2857 63.7101L85.6932 62.8056C85.464 62.7256 85.2743 62.5527 85.1657 62.3249C85.0572 62.0971 85.0387 61.8331 85.1144 61.5909C85.1901 61.3487 85.3537 61.1482 85.5693 61.0335C85.7848 60.9188 86.0347 60.8992 86.2639 60.9792L88.8564 61.8837C89.0856 61.9637 89.2753 62.1366 89.3839 62.3644C89.4924 62.5922 89.5109 62.8562 89.4352 63.0984C89.3596 63.3406 89.1959 63.5411 88.9804 63.6558C88.7648 63.7705 88.5149 63.7901 88.2857 63.7101Z" fill="#2F2E41"/>
<path d="M92.4877 118.35H75.417C75.1033 118.35 74.8026 118.218 74.5808 117.984C74.359 117.749 74.2342 117.432 74.2339 117.1V114.261C74.2342 113.93 74.359 113.612 74.5808 113.378C74.8026 113.143 75.1033 113.012 75.417 113.011H92.4877C92.8014 113.012 93.1021 113.143 93.3239 113.378C93.5457 113.612 93.6704 113.93 93.6708 114.261V117.1C93.6704 117.432 93.5457 117.749 93.3239 117.984C93.1021 118.218 92.8014 118.35 92.4877 118.35Z" fill="#CCCCCC"/>
<path d="M96.1244 114.054C96.1159 114.054 96.1074 114.054 96.0989 114.053L72.2277 113.522C72.0521 113.518 71.8796 113.473 71.7225 113.39C71.5655 113.307 71.428 113.188 71.3199 113.042C71.2119 112.895 71.136 112.725 71.0978 112.544C71.0597 112.363 71.0602 112.175 71.0993 111.994L76.9113 85.1061C76.97 84.8295 77.1163 84.5823 77.3261 84.4056C77.5358 84.2289 77.7964 84.1331 78.0647 84.1343H81.9553C84.6955 84.1443 87.3499 85.1456 89.4766 86.9715C91.6033 88.7974 93.0742 91.3379 93.6445 94.1701L97.2818 112.548C97.3178 112.729 97.315 112.918 97.2735 113.098C97.2321 113.279 97.153 113.447 97.0422 113.592C96.9313 113.736 96.7914 113.852 96.6327 113.932C96.4739 114.012 96.3003 114.054 96.1244 114.054Z" fill="#2F2E41"/>
<path d="M80.7881 98.8418C80.477 98.8424 80.1782 98.713 79.9569 98.4818L64.0262 81.8568C63.9157 81.7414 63.8277 81.6042 63.7674 81.4529C63.707 81.3016 63.6754 81.1392 63.6745 80.9751C63.6735 80.8109 63.7031 80.6481 63.7617 80.496C63.8203 80.344 63.9066 80.2056 64.0158 80.0888L65.9034 78.0689C66.1239 77.833 66.4241 77.6994 66.7378 77.6973C67.0516 77.6952 67.3533 77.8249 67.5765 78.0579L83.5072 94.6829C83.7301 94.9161 83.8564 95.2332 83.8584 95.5646C83.8603 95.8961 83.7378 96.2149 83.5176 96.451L81.63 98.4708C81.52 98.5886 81.3889 98.682 81.2444 98.7457C81.0998 98.8094 80.9447 98.8421 80.7881 98.8418Z" fill="#C9070C"/>
<path d="M80.0517 99.3454L73.0467 92.1227C72.8282 91.8974 72.7002 91.5919 72.6892 91.2696C72.6783 90.9473 72.7852 90.6328 72.9877 90.3915L75.9362 86.8798C76.0527 86.741 76.1968 86.6313 76.3582 86.5585C76.5196 86.4856 76.6943 86.4515 76.8696 86.4585C77.045 86.4656 77.2167 86.5136 77.3724 86.5991C77.5282 86.6846 77.664 86.8056 77.7702 86.9532L85.2655 95.0254C85.4756 95.273 85.5843 95.5985 85.5678 95.9307C85.5513 96.2628 85.4109 96.5745 85.1774 96.7975L81.7305 99.4394C81.496 99.6619 81.1875 99.777 80.8727 99.7594C80.558 99.7418 80.2627 99.5929 80.0517 99.3454Z" fill="#2F2E41"/>
<path d="M147.53 135H13.152C13.1235 135 13.0953 134.994 13.0689 134.983C13.0425 134.971 13.0186 134.954 12.9984 134.933C12.9782 134.912 12.9622 134.887 12.9513 134.859C12.9403 134.831 12.9347 134.801 12.9347 134.771C12.9347 134.741 12.9403 134.711 12.9513 134.683C12.9622 134.655 12.9782 134.63 12.9984 134.609C13.0186 134.588 13.0425 134.571 13.0689 134.559C13.0953 134.548 13.1235 134.542 13.152 134.542H147.53C147.558 134.542 147.587 134.548 147.613 134.559C147.639 134.571 147.663 134.588 147.683 134.609C147.704 134.63 147.72 134.655 147.731 134.683C147.742 134.711 147.747 134.741 147.747 134.771C147.747 134.801 147.742 134.831 147.731 134.859C147.72 134.887 147.704 134.912 147.683 134.933C147.663 134.954 147.639 134.971 147.613 134.983C147.587 134.994 147.558 135 147.53 135Z" fill="#3F3D56"/>
</svg>
