<svg width="467" height="498" viewBox="0 0 467 498" fill="none" xmlns="http://www.w3.org/2000/svg">
<g clip-path="url(#clip0_2_8)">
<path d="M277.861 496.802H269.357C268.288 496.801 267.263 496.278 266.506 495.348C265.75 494.417 265.325 493.156 265.324 491.841V404.649C265.325 403.334 265.75 402.073 266.506 401.142C267.263 400.212 268.288 399.689 269.357 399.688H277.861C278.93 399.689 279.955 400.212 280.711 401.142C281.467 402.073 281.893 403.334 281.894 404.649V491.841C281.893 493.156 281.467 494.417 280.711 495.348C279.955 496.278 278.93 496.801 277.861 496.802Z" fill="#C9070C"/>
<path d="M259.889 496.802H251.386C250.316 496.801 249.291 496.278 248.535 495.348C247.779 494.417 247.354 493.156 247.352 491.841V404.649C247.354 403.334 247.779 402.073 248.535 401.142C249.291 400.212 250.316 399.689 251.386 399.688H259.889C260.959 399.689 261.984 400.212 262.74 401.142C263.496 402.073 263.921 403.334 263.922 404.649V491.841C263.921 493.156 263.496 494.417 262.74 495.348C261.984 496.278 260.959 496.801 259.889 496.802Z" fill="#C9070C"/>
<path d="M35.9249 214.653C34.2034 223.521 32.0287 225.632 29.969 225.027C27.9093 224.422 26.7446 221.33 28.4661 212.462C30.1877 203.593 36.2032 192.911 36.2032 192.911C36.2032 192.911 37.6464 205.784 35.9249 214.653Z" fill="#CCCCCC"/>
<path d="M31.3156 369.17C29.5941 378.038 27.4194 380.149 25.3598 379.544C23.3001 378.939 22.1353 375.847 23.8569 366.979C25.5784 358.11 31.594 347.428 31.594 347.428C31.594 347.428 33.0372 360.301 31.3156 369.17Z" fill="#CCCCCC"/>
<path d="M283.569 93.0095C283.569 93.0095 287.515 82.7398 281.139 80.0696C274.763 77.3995 275.221 88.1554 275.221 88.1554L282.977 93.8181" fill="#3F3D56"/>
<path d="M149.593 123.226L136.378 136.405C136.378 136.405 334.629 218.371 357.24 234.631L355.008 211.663L336.277 183.596L299.994 155.122L241.426 132.708L177.599 104.47L149.593 123.226Z" fill="#C9070C"/>
<path d="M250.56 156.001L205.707 293.714C205.707 293.714 198.539 316.518 214.381 320.889C223.906 323.516 228.941 316.408 231.442 310.321C234.113 303.82 226.861 298.103 223.237 303.864C223.178 303.958 223.12 304.053 223.06 304.15C222.972 304.296 213.469 313.367 213.475 300.952C213.498 298.09 213.98 295.261 214.894 292.629L258.973 162.391L250.56 156.001Z" fill="#3F3D56"/>
<path d="M279.017 87.1645C279.017 87.1645 266.396 84.8974 259.297 79.9627C259.297 79.9627 181.401 59.5662 136.426 135.656C136.426 135.656 348.156 195.951 357.288 233.882C357.288 233.882 370.577 163.689 300.182 98.8955C300.182 98.8955 282.96 91.5324 279.017 87.1645Z" fill="#3F3D56"/>
<path d="M38.8514 305.998C37.8009 311.41 36.474 312.698 35.2172 312.328C33.9604 311.959 33.2496 310.072 34.3001 304.661C35.3506 299.249 39.0212 292.732 39.0212 292.732C39.0212 292.732 39.9019 300.587 38.8514 305.998Z" fill="#CCCCCC"/>
<path d="M6.0107 332.223C4.96023 337.635 3.63326 338.923 2.37646 338.554C1.11966 338.184 0.408945 336.298 1.4594 330.886C2.50986 325.475 6.18052 318.957 6.18052 318.957C6.18052 318.957 7.06117 326.812 6.0107 332.223Z" fill="#CCCCCC"/>
<path d="M247.373 76.4382C245.651 85.3068 243.477 87.4176 241.417 86.8125C239.357 86.2074 238.193 83.1155 239.914 74.247C241.636 65.3786 247.651 54.6969 247.651 54.6969C247.651 54.6969 249.094 67.5697 247.373 76.4382Z" fill="#CCCCCC"/>
<path d="M254.909 13.2665C253.858 18.678 252.531 19.966 251.274 19.5968C250.017 19.2276 249.307 17.3409 250.357 11.9294C251.408 6.51787 255.078 0 255.078 0C255.078 0 255.959 7.85502 254.909 13.2665Z" fill="#CCCCCC"/>
<path d="M222.068 39.4919C221.017 44.9034 219.69 46.1914 218.434 45.8222C217.177 45.4529 216.466 43.5662 217.517 38.1547C218.567 32.7432 222.238 26.2253 222.238 26.2253C222.238 26.2253 223.118 34.0804 222.068 39.4919Z" fill="#CCCCCC"/>
<path d="M156.341 354.285C154.619 363.154 152.445 365.265 150.385 364.659C148.325 364.054 147.16 360.962 148.882 352.094C150.604 343.226 156.619 332.544 156.619 332.544C156.619 332.544 158.062 345.417 156.341 354.285Z" fill="#CCCCCC"/>
<path d="M163.876 291.113C162.826 296.525 161.499 297.813 160.242 297.444C158.985 297.074 158.275 295.188 159.325 289.776C160.376 284.365 164.046 277.847 164.046 277.847C164.046 277.847 164.927 285.702 163.876 291.113Z" fill="#CCCCCC"/>
<path d="M131.036 317.339C129.985 322.75 128.658 324.038 127.402 323.669C126.145 323.3 125.434 321.413 126.484 316.002C127.535 310.59 131.206 304.072 131.206 304.072C131.206 304.072 132.086 311.927 131.036 317.339Z" fill="#CCCCCC"/>
<path d="M122.348 89.9053C120.626 98.7738 118.452 100.885 116.392 100.28C114.332 99.6745 113.167 96.5826 114.889 87.7141C116.611 78.8457 122.626 68.1639 122.626 68.1639C122.626 68.1639 124.069 81.0368 122.348 89.9053Z" fill="#CCCCCC"/>
<path d="M117.739 244.422C116.017 253.291 113.842 255.402 111.783 254.797C109.723 254.191 108.558 251.099 110.28 242.231C112.001 233.363 118.017 222.681 118.017 222.681C118.017 222.681 119.46 235.554 117.739 244.422Z" fill="#CCCCCC"/>
<path d="M125.274 181.25C124.224 186.662 122.897 187.95 121.64 187.581C120.383 187.212 119.672 185.325 120.723 179.913C121.773 174.502 125.444 167.984 125.444 167.984C125.444 167.984 126.325 175.839 125.274 181.25Z" fill="#CCCCCC"/>
<path d="M92.4335 207.476C91.3831 212.887 90.0561 214.175 88.7993 213.806C87.5425 213.437 86.8318 211.55 87.8823 206.139C88.9327 200.727 92.6034 194.209 92.6034 194.209C92.6034 194.209 93.484 202.064 92.4335 207.476Z" fill="#CCCCCC"/>
<path d="M210.499 96.2845C208.778 105.153 206.603 107.264 204.543 106.659C202.484 106.054 201.319 102.962 203.04 94.0932C204.762 85.2248 210.777 74.5431 210.777 74.5431C210.777 74.5431 212.221 87.4159 210.499 96.2845Z" fill="#CCCCCC"/>
<path d="M205.89 250.801C204.168 259.67 201.994 261.781 199.934 261.176C197.874 260.571 196.71 257.479 198.431 248.61C200.153 239.742 206.168 229.06 206.168 229.06C206.168 229.06 207.611 241.933 205.89 250.801Z" fill="#CCCCCC"/>
<path d="M213.426 187.63C212.375 193.041 211.048 194.329 209.791 193.96C208.535 193.591 207.824 191.704 208.874 186.293C209.925 180.881 213.595 174.363 213.595 174.363C213.595 174.363 214.476 182.218 213.426 187.63Z" fill="#CCCCCC"/>
<path d="M292.313 126.054C290.591 134.922 288.416 137.033 286.357 136.428C284.297 135.823 283.132 132.731 284.854 123.863C286.575 114.994 292.591 104.312 292.591 104.312C292.591 104.312 294.034 117.185 292.313 126.054Z" fill="#CCCCCC"/>
<path d="M267.008 89.1074C265.957 94.5189 264.63 95.8069 263.374 95.4377C262.117 95.0684 261.406 93.1818 262.456 87.7702C263.507 82.3587 267.178 75.8409 267.178 75.8409C267.178 75.8409 268.058 83.6959 267.008 89.1074Z" fill="#CCCCCC"/>
<path d="M333.22 84.235C331.498 93.1035 329.323 95.2144 327.264 94.6092C325.204 94.0041 324.039 90.9122 325.761 82.0438C327.482 73.1753 333.498 62.4936 333.498 62.4936C333.498 62.4936 334.941 75.3665 333.22 84.235Z" fill="#CCCCCC"/>
<path d="M328.61 238.752C326.889 247.62 324.714 249.731 322.654 249.126C320.595 248.521 319.43 245.429 321.152 236.561C322.873 227.692 328.889 217.01 328.889 217.01C328.889 217.01 330.332 229.883 328.61 238.752Z" fill="#CCCCCC"/>
<path d="M336.146 175.58C335.096 180.992 333.769 182.28 332.512 181.91C331.255 181.541 330.544 179.655 331.595 174.243C332.645 168.832 336.316 162.314 336.316 162.314C336.316 162.314 337.197 170.169 336.146 175.58Z" fill="#CCCCCC"/>
<path d="M415.033 114.004C413.312 122.873 411.137 124.984 409.077 124.379C407.018 123.773 405.853 120.682 407.574 111.813C409.296 102.945 415.312 92.2629 415.312 92.2629C415.312 92.2629 416.755 105.136 415.033 114.004Z" fill="#CCCCCC"/>
<path d="M389.728 77.0579C388.678 82.4694 387.351 83.7574 386.094 83.3882C384.837 83.019 384.126 81.1323 385.177 75.7208C386.227 70.3093 389.898 63.7914 389.898 63.7914C389.898 63.7914 390.779 71.6464 389.728 77.0579Z" fill="#CCCCCC"/>
<path d="M381.04 185.592C379.319 194.461 377.144 196.572 375.084 195.967C373.025 195.362 371.86 192.27 373.581 183.401C375.303 174.533 381.319 163.851 381.319 163.851C381.319 163.851 382.762 176.724 381.04 185.592Z" fill="#CCCCCC"/>
<path d="M376.431 340.109C374.709 348.978 372.535 351.089 370.475 350.484C368.415 349.878 367.251 346.787 368.972 337.918C370.694 329.05 376.709 318.368 376.709 318.368C376.709 318.368 378.153 331.241 376.431 340.109Z" fill="#CCCCCC"/>
<path d="M383.967 276.938C382.916 282.349 381.589 283.637 380.332 283.268C379.076 282.899 378.365 281.012 379.415 275.6C380.466 270.189 384.137 263.671 384.137 263.671C384.137 263.671 385.017 271.526 383.967 276.938Z" fill="#CCCCCC"/>
<path d="M462.854 215.362C461.132 224.23 458.958 226.341 456.898 225.736C454.838 225.131 453.674 222.039 455.395 213.171C457.117 204.302 463.132 193.62 463.132 193.62C463.132 193.62 464.575 206.493 462.854 215.362Z" fill="#CCCCCC"/>
<path d="M437.549 178.415C436.498 183.827 435.171 185.115 433.915 184.746C432.658 184.376 431.947 182.49 432.998 177.078C434.048 171.667 437.719 165.149 437.719 165.149C437.719 165.149 438.599 173.004 437.549 178.415Z" fill="#CCCCCC"/>
<path d="M270.533 304.18C286.761 304.18 299.917 287.996 299.917 268.031C299.917 248.067 286.761 231.883 270.533 231.883C254.305 231.883 241.149 248.067 241.149 268.031C241.149 287.996 254.305 304.18 270.533 304.18Z" fill="#C9070C"/>
<path d="M246.889 283.206C244.984 283.141 242.613 283.059 240.788 281.418C240.244 280.909 239.797 280.26 239.479 279.517C239.16 278.773 238.978 277.953 238.944 277.113C238.911 276.517 238.991 275.919 239.177 275.367C239.363 274.814 239.65 274.323 240.016 273.929C240.97 272.937 242.363 272.705 243.864 273.248L242.309 259.266L243.45 259.074L245.278 275.511L244.325 274.973C243.22 274.35 241.703 274.032 240.76 275.012C240.528 275.268 240.348 275.586 240.233 275.942C240.118 276.298 240.071 276.682 240.096 277.064C240.124 277.688 240.261 278.298 240.497 278.852C240.734 279.406 241.065 279.891 241.468 280.273C242.888 281.55 244.778 281.715 246.922 281.789L246.889 283.206Z" fill="#2F2E41"/>
<path d="M256.252 260.472H250.046V261.89H256.252V260.472Z" fill="#2F2E41"/>
<path d="M272.589 231.776C272.805 227.503 273.765 223.337 275.404 219.56C277.043 215.783 279.322 212.483 282.088 209.884C284.945 207.281 288.243 205.504 291.736 204.684C295.228 203.865 298.826 204.024 302.262 205.151C305.675 206.242 308.843 208.273 311.526 211.089C314.209 213.905 316.337 217.434 317.75 221.41C319.172 225.356 319.882 229.634 319.83 233.95C319.673 238.643 318.726 243.246 317.047 247.465C315.314 252.109 313.129 256.466 311.231 261.006C309.362 265.482 307.749 270.114 306.405 274.868C303.669 284.553 302.055 294.663 301.61 304.902C300.905 321.042 302.16 344.604 316.97 350.798C320.737 352.373 324.799 352.667 328.748 352.654C332.907 352.716 337.055 352.119 341.089 350.875C348.081 348.579 354.719 343.185 357.698 334.806C358.384 332.871 358.845 330.826 359.065 328.732C359.127 328.158 358.623 327.674 358.201 327.669C357.973 327.676 357.757 327.79 357.596 327.988C357.435 328.186 357.342 328.452 357.337 328.732C356.372 337.661 350.324 344.509 343.757 347.588C339.92 349.298 335.889 350.258 331.81 350.431C327.75 350.683 323.535 350.644 319.56 349.495C316.021 348.553 312.802 346.301 310.334 343.043C308.133 339.926 306.492 336.274 305.517 332.324C303.18 323.546 302.935 313.894 303.345 304.744C303.81 294.539 305.459 284.469 308.241 274.838C309.647 269.976 311.342 265.247 313.314 260.692C315.24 256.236 317.378 251.907 319 247.262C320.584 242.994 321.455 238.377 321.561 233.687C321.574 229.355 320.873 225.064 319.501 221.075C318.152 217.069 316.13 213.46 313.567 210.485C311.004 207.509 307.959 205.233 304.63 203.808C301.244 202.358 297.649 201.795 294.075 202.155C290.502 202.515 287.029 203.79 283.88 205.899C280.884 208.018 278.259 210.846 276.157 214.22C274.055 217.594 272.518 221.447 271.634 225.556C271.204 227.591 270.945 229.676 270.861 231.776C270.804 233.144 272.532 233.14 272.589 231.776Z" fill="#2F2E41"/>
<path d="M278.335 232.522C278.807 228.579 280.413 224.974 282.862 222.363C285.465 219.679 288.802 218.317 292.193 218.553C293.305 218.622 293.302 216.495 292.193 216.427C288.507 216.222 284.889 217.692 282.027 220.555C279.164 223.419 277.257 227.477 276.668 231.957C276.502 233.296 278.168 233.873 278.335 232.522Z" fill="#2F2E41"/>
<path d="M278.054 234.788L269.848 231.455C269.122 231.16 268.522 230.523 268.178 229.684C267.835 228.844 267.776 227.871 268.016 226.979C268.255 226.086 268.773 225.347 269.455 224.924C270.138 224.502 270.929 224.43 271.654 224.724L279.861 228.058C280.586 228.353 281.187 228.99 281.531 229.829C281.874 230.669 281.933 231.642 281.693 232.534C281.454 233.427 280.936 234.166 280.253 234.589C279.571 235.011 278.78 235.083 278.054 234.788Z" fill="#2F2E41"/>
<path d="M291.355 436.152H237.318C236.325 436.15 235.374 435.664 234.671 434.801C233.969 433.937 233.574 432.766 233.573 431.545V421.083C233.574 419.862 233.969 418.691 234.671 417.827C235.374 416.963 236.325 416.478 237.318 416.476H291.355C292.348 416.478 293.3 416.963 294.002 417.827C294.704 418.691 295.099 419.862 295.1 421.083V431.545C295.099 432.766 294.704 433.937 294.002 434.801C293.3 435.664 292.348 436.15 291.355 436.152Z" fill="#CCCCCC"/>
<path d="M302.867 420.318C302.84 420.318 302.813 420.317 302.786 420.317L227.223 418.36C226.667 418.345 226.121 418.179 225.624 417.872C225.127 417.566 224.691 417.127 224.349 416.588C224.007 416.048 223.767 415.422 223.646 414.754C223.526 414.087 223.527 413.394 223.651 412.728L242.049 313.638C242.235 312.619 242.698 311.708 243.362 311.057C244.026 310.405 244.851 310.053 245.7 310.057H258.016C266.69 310.094 275.092 313.784 281.824 320.513C288.556 327.242 293.212 336.604 295.017 347.041L306.531 414.767C306.645 415.437 306.636 416.131 306.505 416.796C306.374 417.462 306.123 418.083 305.773 418.615C305.422 419.146 304.979 419.575 304.476 419.87C303.974 420.164 303.424 420.317 302.867 420.318Z" fill="#2F2E41"/>
<path d="M254.321 364.258C253.336 364.26 252.39 363.783 251.69 362.931L201.261 301.664C200.911 301.239 200.633 300.733 200.442 300.175C200.251 299.618 200.151 299.019 200.148 298.414C200.145 297.809 200.239 297.209 200.424 296.649C200.609 296.089 200.883 295.579 201.228 295.148L207.204 287.704C207.902 286.835 208.852 286.343 209.845 286.335C210.838 286.327 211.793 286.805 212.5 287.664L262.928 348.931C263.634 349.791 264.033 350.959 264.04 352.181C264.046 353.402 263.658 354.577 262.961 355.447L256.986 362.891C256.637 363.325 256.222 363.669 255.765 363.904C255.307 364.139 254.816 364.259 254.321 364.258Z" fill="#C9070C"/>
<path d="M251.989 366.114L229.815 339.496C229.123 338.666 228.718 337.54 228.683 336.352C228.649 335.164 228.987 334.005 229.628 333.116L238.962 320.175C239.33 319.663 239.787 319.259 240.297 318.991C240.808 318.722 241.361 318.596 241.916 318.622C242.472 318.648 243.015 318.825 243.508 319.14C244.001 319.455 244.431 319.901 244.767 320.445L268.493 350.193C269.158 351.106 269.502 352.305 269.45 353.529C269.398 354.753 268.953 355.902 268.214 356.724L257.303 366.46C256.561 367.28 255.584 367.704 254.588 367.639C253.592 367.574 252.657 367.026 251.989 366.114Z" fill="#2F2E41"/>
<path d="M465.59 497.51H40.2202C40.1299 497.51 40.0405 497.489 39.957 497.447C39.8736 497.404 39.7977 497.342 39.7338 497.264C39.6699 497.185 39.6192 497.092 39.5846 496.99C39.55 496.887 39.5322 496.777 39.5322 496.666C39.5322 496.555 39.55 496.445 39.5846 496.343C39.6192 496.24 39.6699 496.147 39.7338 496.069C39.7977 495.99 39.8736 495.928 39.957 495.886C40.0405 495.844 40.1299 495.822 40.2202 495.822H465.59C465.68 495.822 465.77 495.844 465.853 495.886C465.937 495.928 466.012 495.99 466.076 496.069C466.14 496.147 466.191 496.24 466.226 496.343C466.26 496.445 466.278 496.555 466.278 496.666C466.278 496.777 466.26 496.887 466.226 496.99C466.191 497.092 466.14 497.185 466.076 497.264C466.012 497.342 465.937 497.404 465.853 497.447C465.77 497.489 465.68 497.51 465.59 497.51Z" fill="#3F3D56"/>
</g>
<defs>
<clipPath id="clip0_2_8">
<rect width="465.325" height="497.51" fill="white" transform="translate(0.950928)"/>
</clipPath>
</defs>
</svg>
