<svg width="82" height="79" viewBox="0 0 82 79" fill="none" xmlns="http://www.w3.org/2000/svg">
<path d="M48.9487 78.1002H47.4684C47.2823 78.1 47.1038 78.018 46.9722 77.8721C46.8406 77.7263 46.7666 77.5286 46.7664 77.3223V63.6524C46.7666 63.4462 46.8406 63.2484 46.9722 63.1026C47.1038 62.9568 47.2823 62.8747 47.4684 62.8745H48.9487C49.1348 62.8747 49.3133 62.9568 49.4449 63.1026C49.5765 63.2484 49.6505 63.4462 49.6507 63.6524V77.3223C49.6505 77.5286 49.5765 77.7263 49.4449 77.8721C49.3133 78.018 49.1348 78.1 48.9487 78.1002Z" fill="#C9070C"/>
<path d="M45.8205 78.1002H44.3402C44.1541 78.1 43.9757 78.018 43.844 77.8721C43.7124 77.7263 43.6384 77.5286 43.6382 77.3223V63.6524C43.6384 63.4462 43.7124 63.2484 43.844 63.1026C43.9757 62.9568 44.1541 62.8747 44.3402 62.8745H45.8205C46.0066 62.8747 46.1851 62.9568 46.3167 63.1026C46.4483 63.2484 46.5223 63.4462 46.5225 63.6524V77.3223C46.5223 77.5286 46.4483 77.7263 46.3167 77.8721C46.1851 78.018 46.0066 78.1 45.8205 78.1002Z" fill="#C9070C"/>
<path d="M6.83453 33.8646C6.53486 35.255 6.15631 35.5859 5.79778 35.491C5.43925 35.3962 5.2365 34.9114 5.53617 33.521C5.83584 32.1306 6.88298 30.4559 6.88298 30.4559C6.88298 30.4559 7.1342 32.4742 6.83453 33.8646Z" fill="#CCCCCC"/>
<path d="M6.03229 58.0899C5.73261 59.4803 5.35407 59.8113 4.99553 59.7164C4.637 59.6215 4.43425 59.1368 4.73392 57.7464C5.03359 56.356 6.08073 54.6813 6.08073 54.6813C6.08073 54.6813 6.33196 56.6995 6.03229 58.0899Z" fill="#CCCCCC"/>
<path d="M49.9424 14.7933C49.9424 14.7933 50.6293 13.1832 49.5194 12.7645C48.4095 12.3459 48.4893 14.0322 48.4893 14.0322L49.8394 14.92" fill="#3F3D56"/>
<path d="M26.6209 19.5307L24.3206 21.5969C24.3206 21.5969 58.8305 34.4475 62.7665 36.9968L62.378 33.3959L59.1174 28.9956L52.8016 24.5314L42.6065 21.0173L31.4961 16.5901L26.6209 19.5307Z" fill="#C9070C"/>
<path d="M44.1965 24.6691L36.3889 46.2599C36.3889 46.2599 35.1411 49.8351 37.8987 50.5203C39.5567 50.9323 40.4332 49.8179 40.8685 48.8636C41.3335 47.8443 40.0713 46.948 39.4404 47.8512C39.4301 47.8659 39.4199 47.8808 39.4096 47.896C39.3942 47.9189 37.74 49.3411 37.741 47.3947C37.745 46.9459 37.829 46.5025 37.9881 46.0898L45.661 25.671L44.1965 24.6691Z" fill="#3F3D56"/>
<path d="M49.15 13.8769C49.15 13.8769 46.953 13.5215 45.7173 12.7478C45.7173 12.7478 32.1579 9.55 24.329 21.4794C24.329 21.4794 61.1852 30.9325 62.7749 36.8793C62.7749 36.8793 65.0881 25.8744 52.8343 15.7161C52.8343 15.7161 49.8365 14.5617 49.15 13.8769Z" fill="#3F3D56"/>
<path d="M7.34402 48.1858C7.16116 49.0342 6.93017 49.2361 6.7114 49.1782C6.49263 49.1203 6.36891 48.8246 6.55177 47.9761C6.73462 47.1277 7.37358 46.1058 7.37358 46.1058C7.37358 46.1058 7.52688 47.3374 7.34402 48.1858Z" fill="#CCCCCC"/>
<path d="M1.62735 52.2975C1.44449 53.1459 1.2135 53.3478 0.994727 53.2899C0.775953 53.232 0.652238 52.9362 0.835093 52.0878C1.01795 51.2394 1.65691 50.2175 1.65691 50.2175C1.65691 50.2175 1.8102 51.449 1.62735 52.2975Z" fill="#CCCCCC"/>
<path d="M43.6417 12.1952C43.342 13.5857 42.9634 13.9166 42.6049 13.8217C42.2464 13.7269 42.0436 13.2421 42.3433 11.8517C42.643 10.4613 43.6901 8.78662 43.6901 8.78662C43.6901 8.78662 43.9413 10.8048 43.6417 12.1952Z" fill="#CCCCCC"/>
<path d="M44.9535 2.29111C44.7707 3.13953 44.5397 3.34147 44.3209 3.28358C44.1021 3.22569 43.9784 2.9299 44.1613 2.08148C44.3441 1.23306 44.9831 0.211182 44.9831 0.211182C44.9831 0.211182 45.1364 1.4427 44.9535 2.29111Z" fill="#CCCCCC"/>
<path d="M39.2367 6.40269C39.0539 7.25111 38.8229 7.45304 38.6041 7.39516C38.3853 7.33727 38.2616 7.04147 38.4445 6.19305C38.6273 5.34463 39.2663 4.32275 39.2663 4.32275C39.2663 4.32275 39.4196 5.55427 39.2367 6.40269Z" fill="#CCCCCC"/>
<path d="M27.7956 55.7563C27.4959 57.1467 27.1174 57.4776 26.7588 57.3828C26.4003 57.2879 26.1976 56.8031 26.4972 55.4127C26.7969 54.0223 27.844 52.3477 27.844 52.3477C27.844 52.3477 28.0953 54.3659 27.7956 55.7563Z" fill="#CCCCCC"/>
<path d="M29.1073 45.8521C28.9245 46.7006 28.6935 46.9025 28.4747 46.8446C28.2559 46.7867 28.1322 46.4909 28.3151 45.6425C28.4979 44.7941 29.1369 43.7722 29.1369 43.7722C29.1369 43.7722 29.2902 45.0037 29.1073 45.8521Z" fill="#CCCCCC"/>
<path d="M23.3906 49.9638C23.2078 50.8123 22.9768 51.0142 22.758 50.9563C22.5393 50.8984 22.4155 50.6026 22.5984 49.7542C22.7813 48.9058 23.4202 47.8839 23.4202 47.8839C23.4202 47.8839 23.5735 49.1154 23.3906 49.9638Z" fill="#CCCCCC"/>
<path d="M21.8784 14.3066C21.5787 15.697 21.2001 16.0279 20.8416 15.9331C20.4831 15.8382 20.2803 15.3534 20.58 13.963C20.8797 12.5726 21.9268 10.8979 21.9268 10.8979C21.9268 10.8979 22.178 12.9162 21.8784 14.3066Z" fill="#CCCCCC"/>
<path d="M21.076 38.5319C20.7763 39.9223 20.3978 40.2533 20.0392 40.1584C19.6807 40.0635 19.478 39.5788 19.7776 38.1884C20.0773 36.798 21.1244 35.1233 21.1244 35.1233C21.1244 35.1233 21.3757 37.1415 21.076 38.5319Z" fill="#CCCCCC"/>
<path d="M22.3877 28.6278C22.2049 29.4762 21.9739 29.6781 21.7551 29.6202C21.5363 29.5624 21.4126 29.2666 21.5955 28.4181C21.7783 27.5697 22.4173 26.5479 22.4173 26.5479C22.4173 26.5479 22.5706 27.7794 22.3877 28.6278Z" fill="#CCCCCC"/>
<path d="M16.6712 32.7394C16.4883 33.5878 16.2573 33.7897 16.0385 33.7318C15.8198 33.6739 15.6961 33.3781 15.8789 32.5297C16.0618 31.6813 16.7007 30.6594 16.7007 30.6594C16.7007 30.6594 16.854 31.8909 16.6712 32.7394Z" fill="#CCCCCC"/>
<path d="M37.223 15.3067C36.9233 16.6971 36.5447 17.0281 36.1862 16.9332C35.8277 16.8383 35.6249 16.3536 35.9246 14.9632C36.2243 13.5728 37.2714 11.8981 37.2714 11.8981C37.2714 11.8981 37.5226 13.9163 37.223 15.3067Z" fill="#CCCCCC"/>
<path d="M36.4207 39.532C36.121 40.9225 35.7425 41.2534 35.384 41.1585C35.0254 41.0637 34.8227 40.5789 35.1224 39.1885C35.422 37.7981 36.4692 36.1234 36.4692 36.1234C36.4692 36.1234 36.7204 38.1416 36.4207 39.532Z" fill="#CCCCCC"/>
<path d="M37.7324 29.6279C37.5496 30.4763 37.3186 30.6783 37.0998 30.6204C36.8811 30.5625 36.7573 30.2667 36.9402 29.4183C37.1231 28.5698 37.762 27.548 37.762 27.548C37.762 27.548 37.9153 28.7795 37.7324 29.6279Z" fill="#CCCCCC"/>
<path d="M51.4644 19.9739C51.1647 21.3643 50.7862 21.6953 50.4277 21.6004C50.0691 21.5056 49.8664 21.0208 50.1661 19.6304C50.4657 18.24 51.5129 16.5653 51.5129 16.5653C51.5129 16.5653 51.7641 18.5835 51.4644 19.9739Z" fill="#CCCCCC"/>
<path d="M47.0595 14.1815C46.8766 15.0299 46.6456 15.2319 46.4269 15.174C46.2081 15.1161 46.0844 14.8203 46.2672 13.9719C46.4501 13.1234 47.089 12.1016 47.089 12.1016C47.089 12.1016 47.2423 13.3331 47.0595 14.1815Z" fill="#CCCCCC"/>
<path d="M58.5853 13.4175C58.2856 14.808 57.907 15.1389 57.5485 15.044C57.19 14.9492 56.9872 14.4644 57.2869 13.074C57.5866 11.6836 58.6337 10.0089 58.6337 10.0089C58.6337 10.0089 58.8849 12.0271 58.5853 13.4175Z" fill="#CCCCCC"/>
<path d="M57.7828 37.6429C57.4831 39.0333 57.1046 39.3642 56.746 39.2694C56.3875 39.1745 56.1847 38.6897 56.4844 37.2993C56.7841 35.9089 57.8312 34.2343 57.8312 34.2343C57.8312 34.2343 58.0824 36.2525 57.7828 37.6429Z" fill="#CCCCCC"/>
<path d="M59.0946 27.7387C58.9118 28.5872 58.6808 28.7891 58.462 28.7312C58.2432 28.6733 58.1195 28.3775 58.3024 27.5291C58.4852 26.6807 59.1242 25.6588 59.1242 25.6588C59.1242 25.6588 59.2775 26.8903 59.0946 27.7387Z" fill="#CCCCCC"/>
<path d="M72.8267 18.0849C72.527 19.4753 72.1485 19.8063 71.79 19.7114C71.4314 19.6165 71.2287 19.1318 71.5284 17.7414C71.828 16.351 72.8752 14.6763 72.8752 14.6763C72.8752 14.6763 73.1264 16.6945 72.8267 18.0849Z" fill="#CCCCCC"/>
<path d="M68.4218 12.2923C68.2389 13.1408 68.0079 13.3427 67.7892 13.2848C67.5704 13.2269 67.4467 12.9311 67.6295 12.0827C67.8124 11.2343 68.4513 10.2124 68.4513 10.2124C68.4513 10.2124 68.6046 11.4439 68.4218 12.2923Z" fill="#CCCCCC"/>
<path d="M66.9095 29.3085C66.6098 30.6989 66.2313 31.0299 65.8727 30.935C65.5142 30.8401 65.3115 30.3554 65.6111 28.965C65.9108 27.5746 66.9579 25.8999 66.9579 25.8999C66.9579 25.8999 67.2092 27.9181 66.9095 29.3085Z" fill="#CCCCCC"/>
<path d="M66.107 53.5338C65.8073 54.9242 65.4288 55.2551 65.0702 55.1602C64.7117 55.0654 64.509 54.5806 64.8086 53.1902C65.1083 51.7998 66.1554 50.1251 66.1554 50.1251C66.1554 50.1251 66.4067 52.1433 66.107 53.5338Z" fill="#CCCCCC"/>
<path d="M67.4189 43.6296C67.236 44.478 67.005 44.68 66.7862 44.6221C66.5675 44.5642 66.4437 44.2684 66.6266 43.42C66.8095 42.5716 67.4484 41.5497 67.4484 41.5497C67.4484 41.5497 67.6017 42.7812 67.4189 43.6296Z" fill="#CCCCCC"/>
<path d="M81.1509 33.9758C80.8513 35.3662 80.4727 35.6971 80.1142 35.6023C79.7557 35.5074 79.5529 35.0226 79.8526 33.6322C80.1522 32.2418 81.1994 30.5671 81.1994 30.5671C81.1994 30.5671 81.4506 32.5854 81.1509 33.9758Z" fill="#CCCCCC"/>
<path d="M76.746 28.1832C76.5631 29.0316 76.3322 29.2336 76.1134 29.1757C75.8946 29.1178 75.7709 28.822 75.9537 27.9736C76.1366 27.1251 76.7756 26.1033 76.7756 26.1033C76.7756 26.1033 76.9289 27.3348 76.746 28.1832Z" fill="#CCCCCC"/>
<path d="M47.6732 47.9007C50.4981 47.9007 52.7881 45.3633 52.7881 42.2333C52.7881 39.1033 50.4981 36.5659 47.6732 36.5659C44.8484 36.5659 42.5583 39.1033 42.5583 42.2333C42.5583 45.3633 44.8484 47.9007 47.6732 47.9007Z" fill="#C9070C"/>
<path d="M43.5576 44.6124C43.226 44.6022 42.8133 44.5893 42.4956 44.3321C42.4009 44.2524 42.3231 44.1506 42.2677 44.034C42.2122 43.9175 42.1805 43.7889 42.1746 43.6572C42.1689 43.5637 42.1827 43.47 42.2151 43.3834C42.2475 43.2968 42.2975 43.2197 42.3612 43.158C42.5272 43.0025 42.7697 42.9661 43.031 43.0512L42.7603 40.8591L42.959 40.829L43.2772 43.406L43.1113 43.3216C42.9189 43.2239 42.6549 43.1742 42.4907 43.3278C42.4504 43.3679 42.419 43.4178 42.3989 43.4736C42.3789 43.5294 42.3707 43.5896 42.3751 43.6494C42.3799 43.7474 42.4038 43.843 42.445 43.9299C42.4862 44.0167 42.5438 44.0927 42.6139 44.1526C42.8611 44.3529 43.1901 44.3787 43.5632 44.3903L43.5576 44.6124Z" fill="#2F2E41"/>
<path d="M45.1872 41.0482H44.1069V41.2705H45.1872V41.0482Z" fill="#2F2E41"/>
<path d="M48.0311 36.5492C48.0687 35.8793 48.2358 35.2261 48.5211 34.634C48.8064 34.0418 49.2032 33.5245 49.6846 33.117C50.182 32.7089 50.756 32.4303 51.364 32.3018C51.972 32.1733 52.5982 32.1983 53.1963 32.3749C53.7905 32.546 54.3419 32.8644 54.8089 33.3059C55.276 33.7475 55.6464 34.3007 55.8924 34.924C56.14 35.5426 56.2635 36.2134 56.2545 36.8901C56.2272 37.6259 56.0622 38.3474 55.77 39.0089C55.4684 39.737 55.088 40.4201 54.7576 41.1319C54.4322 41.8337 54.1515 42.5599 53.9175 43.3051C53.4413 44.8236 53.1603 46.4087 53.0829 48.0139C52.9601 50.5443 53.1786 54.2385 55.7566 55.2096C56.4122 55.4566 57.1195 55.5026 57.8068 55.5005C58.5307 55.5103 59.2528 55.4166 59.9551 55.2217C61.1722 54.8616 62.3276 54.0161 62.8462 52.7023C62.9657 52.3989 63.0458 52.0783 63.0841 51.7501C63.0949 51.6601 63.0073 51.5842 62.9337 51.5834C62.8941 51.5844 62.8564 51.6023 62.8284 51.6334C62.8004 51.6644 62.7842 51.7062 62.7833 51.7501C62.6154 53.15 61.5626 54.2236 60.4195 54.7062C59.7516 54.9745 59.0498 55.1249 58.3398 55.152C57.6332 55.1915 56.8994 55.1854 56.2074 55.0052C55.5915 54.8575 55.031 54.5046 54.6014 53.9937C54.2184 53.5051 53.9327 52.9325 53.763 52.3132C53.3561 50.9369 53.3134 49.4237 53.3849 47.9893C53.4659 46.3893 53.7528 44.8104 54.2372 43.3005C54.4818 42.5382 54.777 41.7969 55.1201 41.0827C55.4554 40.3841 55.8276 39.7053 56.11 38.9772C56.3857 38.3079 56.5373 37.5841 56.5558 36.8488C56.558 36.1696 56.436 35.497 56.1972 34.8715C55.9624 34.2435 55.6104 33.6777 55.1642 33.2111C54.7181 32.7446 54.188 32.3878 53.6086 32.1644C53.0192 31.937 52.3933 31.8488 51.7713 31.9052C51.1492 31.9617 50.5447 32.1616 49.9965 32.4922C49.475 32.8244 49.0181 33.2677 48.6522 33.7967C48.2864 34.3257 48.0187 34.9298 47.8648 35.574C47.79 35.8932 47.7449 36.2199 47.7302 36.5492C47.7203 36.7636 48.0212 36.763 48.0311 36.5492Z" fill="#2F2E41"/>
<path d="M49.0314 36.6662C49.1135 36.0479 49.3931 35.4827 49.8194 35.0734C50.2725 34.6526 50.8533 34.439 51.4436 34.4761C51.6372 34.4868 51.6366 34.1534 51.4436 34.1427C50.8021 34.1107 50.1723 34.341 49.674 34.79C49.1757 35.2389 48.8438 35.8751 48.7413 36.5776C48.7124 36.7874 49.0022 36.8779 49.0314 36.6662Z" fill="#2F2E41"/>
<path d="M48.9826 37.0215L47.554 36.4989C47.4278 36.4527 47.3232 36.3528 47.2634 36.2211C47.2036 36.0895 47.1934 35.937 47.2351 35.797C47.2768 35.6571 47.3669 35.5413 47.4857 35.475C47.6045 35.4087 47.7422 35.3974 47.8685 35.4436L49.297 35.9663C49.4233 36.0125 49.5279 36.1124 49.5877 36.244C49.6475 36.3756 49.6577 36.5281 49.616 36.6681C49.5743 36.808 49.4841 36.9238 49.3653 36.9901C49.2465 37.0564 49.1089 37.0677 48.9826 37.0215Z" fill="#2F2E41"/>
<path d="M51.2977 68.5913H41.8914C41.7186 68.5911 41.5529 68.515 41.4307 68.3795C41.3084 68.2441 41.2397 68.0605 41.2395 67.869V66.2289C41.2397 66.0374 41.3084 65.8538 41.4307 65.7184C41.5529 65.583 41.7186 65.5068 41.8914 65.5066H51.2977C51.4706 65.5068 51.6363 65.583 51.7585 65.7184C51.8807 65.8538 51.9494 66.0374 51.9496 66.2289V67.869C51.9494 68.0605 51.8807 68.2441 51.7585 68.3795C51.6363 68.515 51.4706 68.5911 51.2977 68.5913Z" fill="#CCCCCC"/>
<path d="M53.3018 66.1089C53.2971 66.1089 53.2924 66.1089 53.2877 66.1088L40.1343 65.8019C40.0375 65.7997 39.9424 65.7736 39.8559 65.7255C39.7694 65.6775 39.6936 65.6087 39.634 65.5241C39.5745 65.4396 39.5327 65.3414 39.5117 65.2367C39.4906 65.132 39.4909 65.0235 39.5125 64.919L42.715 49.3836C42.7473 49.2238 42.828 49.081 42.9436 48.9789C43.0591 48.8768 43.2027 48.8215 43.3505 48.8221H45.4944C47.0043 48.8279 48.4669 49.4065 49.6387 50.4614C50.8106 51.5164 51.6211 52.9842 51.9353 54.6206L53.9396 65.2387C53.9594 65.3438 53.9578 65.4525 53.935 65.5568C53.9122 65.6612 53.8686 65.7586 53.8075 65.8419C53.7464 65.9253 53.6694 65.9925 53.5819 66.0387C53.4944 66.0849 53.3987 66.1089 53.3018 66.1089Z" fill="#2F2E41"/>
<path d="M44.8511 57.3199C44.6797 57.3202 44.5151 57.2454 44.3931 57.1119L35.615 47.5063C35.5541 47.4396 35.5056 47.3603 35.4723 47.2729C35.4391 47.1855 35.4217 47.0917 35.4212 46.9969C35.4206 46.902 35.437 46.808 35.4692 46.7201C35.5015 46.6322 35.5491 46.5523 35.6092 46.4848L36.6494 45.3177C36.7709 45.1815 36.9362 45.1042 37.1091 45.103C37.282 45.1019 37.4482 45.1768 37.5713 45.3114L46.3494 54.9169C46.4722 55.0517 46.5418 55.2349 46.5429 55.4264C46.544 55.6179 46.4765 55.8021 46.3552 55.9385L45.315 57.1055C45.2544 57.1735 45.1822 57.2276 45.1025 57.2644C45.0229 57.3012 44.9374 57.32 44.8511 57.3199Z" fill="#C9070C"/>
<path d="M44.4452 57.6107L40.5853 53.4376C40.465 53.3074 40.3944 53.1309 40.3884 52.9447C40.3823 52.7584 40.4412 52.5768 40.5528 52.4373L42.1775 50.4083C42.2417 50.3282 42.3211 50.2648 42.41 50.2227C42.499 50.1806 42.5952 50.1609 42.6918 50.1649C42.7885 50.169 42.8831 50.1967 42.9689 50.2462C43.0547 50.2956 43.1296 50.3655 43.1881 50.4508L47.3182 55.1147C47.4339 55.2578 47.4938 55.4458 47.4847 55.6377C47.4756 55.8296 47.3982 56.0097 47.2696 56.1386L45.3703 57.665C45.2411 57.7936 45.0711 57.8601 44.8976 57.8499C44.7242 57.8397 44.5615 57.7537 44.4452 57.6107Z" fill="#2F2E41"/>
<path d="M81.6272 78.2112H7.58229C7.56657 78.2112 7.55101 78.2078 7.53648 78.2012C7.52195 78.1946 7.50875 78.1848 7.49762 78.1725C7.4865 78.1602 7.47767 78.1456 7.47165 78.1296C7.46563 78.1135 7.46252 78.0963 7.46252 78.0788C7.46252 78.0614 7.46563 78.0442 7.47165 78.0281C7.47767 78.012 7.4865 77.9974 7.49762 77.9851C7.50875 77.9729 7.52195 77.9631 7.53648 77.9565C7.55101 77.9499 7.56657 77.9465 7.58229 77.9465H81.6272C81.6429 77.9465 81.6585 77.9499 81.673 77.9565C81.6875 77.9631 81.7007 77.9729 81.7119 77.9851C81.723 77.9974 81.7318 78.012 81.7378 78.0281C81.7439 78.0442 81.747 78.0614 81.747 78.0788C81.747 78.0963 81.7439 78.1135 81.7378 78.1296C81.7318 78.1456 81.723 78.1602 81.7119 78.1725C81.7007 78.1848 81.6875 78.1946 81.673 78.2012C81.6585 78.2078 81.6429 78.2112 81.6272 78.2112Z" fill="#3F3D56"/>
</svg>
