<svg width="360" height="312" viewBox="0 0 360 312" fill="none" xmlns="http://www.w3.org/2000/svg">
<g clip-path="url(#clip0_32_17614)">
<path d="M214.232 311.378H207.653C206.826 311.377 206.033 311.049 205.448 310.467C204.863 309.884 204.534 309.094 204.533 308.27V253.653C204.534 252.829 204.863 252.039 205.448 251.456C206.033 250.874 206.826 250.546 207.653 250.545H214.232C215.059 250.546 215.852 250.874 216.437 251.456C217.022 252.039 217.351 252.829 217.352 253.653V308.27C217.351 309.094 217.022 309.884 216.437 310.467C215.852 311.049 215.059 311.377 214.232 311.378Z" fill="#C9070C"/>
<path d="M200.328 311.378H193.749C192.922 311.377 192.129 311.049 191.544 310.467C190.959 309.884 190.63 309.094 190.629 308.27V253.653C190.63 252.829 190.959 252.039 191.544 251.456C192.129 250.874 192.922 250.546 193.749 250.545H200.328C201.156 250.546 201.949 250.874 202.534 251.456C203.119 252.039 203.448 252.829 203.448 253.653V308.27C203.448 309.094 203.119 309.884 202.534 310.467C201.949 311.049 201.156 311.377 200.328 311.378Z" fill="#C9070C"/>
<path d="M27.0577 134.638C25.7258 140.193 24.0433 141.516 22.4499 141.137C20.8564 140.758 19.9553 138.821 21.2871 133.266C22.619 127.71 27.273 121.019 27.273 121.019C27.273 121.019 28.3895 129.083 27.0577 134.638Z" fill="#CCCCCC"/>
<path d="M23.4917 231.428C22.1599 236.984 20.4774 238.306 18.8839 237.927C17.2905 237.548 16.3894 235.611 17.7212 230.056C19.0531 224.501 23.7071 217.81 23.7071 217.81C23.7071 217.81 24.8236 225.873 23.4917 231.428Z" fill="#CCCCCC"/>
<path d="M218.648 58.4403C218.648 58.4403 221.701 52.0073 216.768 50.3347C211.835 48.6621 212.19 55.3997 212.19 55.3997L218.191 58.9468" fill="#3F3D56"/>
<path d="M114.997 77.3679L104.773 85.6233C104.773 85.6233 258.151 136.967 275.644 147.152L273.917 132.765L259.426 115.184L231.356 97.3478L186.044 83.3075L136.664 65.6191L114.997 77.3679Z" fill="#C9070C"/>
<path d="M193.111 97.8982L158.41 184.162C158.41 184.162 152.864 198.447 165.121 201.185C172.489 202.831 176.385 198.378 178.32 194.565C180.386 190.493 174.776 186.912 171.972 190.521C171.927 190.579 171.881 190.639 171.836 190.7C171.767 190.791 164.415 196.473 164.419 188.696C164.437 186.904 164.811 185.132 165.518 183.483L199.62 101.901L193.111 97.8982Z" fill="#3F3D56"/>
<path d="M215.126 54.779C215.126 54.779 205.362 53.3588 199.87 50.2677C199.87 50.2677 139.606 37.4912 104.811 85.1541C104.811 85.1541 268.616 122.923 275.681 146.683C275.681 146.683 285.962 102.714 231.501 62.1273C231.501 62.1273 218.177 57.515 215.126 54.779Z" fill="#3F3D56"/>
<path d="M29.3219 191.857C28.5092 195.247 27.4825 196.054 26.5102 195.823C25.5379 195.591 24.988 194.41 25.8007 191.02C26.6134 187.63 29.4532 183.547 29.4532 183.547C29.4532 183.547 30.1345 188.468 29.3219 191.857Z" fill="#CCCCCC"/>
<path d="M3.9145 208.285C3.10181 211.675 2.07519 212.482 1.10287 212.25C0.130539 212.019 -0.419306 210.837 0.393384 207.447C1.20607 204.058 4.04589 199.975 4.04589 199.975C4.04589 199.975 4.7272 204.895 3.9145 208.285Z" fill="#CCCCCC"/>
<path d="M190.645 48.0601C189.313 53.6153 187.631 54.9376 186.037 54.5586C184.444 54.1795 183.543 52.2427 184.874 46.6875C186.206 41.1322 190.86 34.4412 190.86 34.4412C190.86 34.4412 191.977 42.5048 190.645 48.0601Z" fill="#CCCCCC"/>
<path d="M196.475 8.4889C195.662 11.8787 194.636 12.6855 193.663 12.4542C192.691 12.2229 192.141 11.0411 192.954 7.65132C193.766 4.26153 196.606 0.178711 196.606 0.178711C196.606 0.178711 197.288 5.09913 196.475 8.4889Z" fill="#CCCCCC"/>
<path d="M171.068 24.9166C170.255 28.3064 169.228 29.1133 168.256 28.882C167.284 28.6507 166.734 27.4689 167.547 24.0791C168.359 20.6893 171.199 16.6064 171.199 16.6064C171.199 16.6064 171.88 21.5269 171.068 24.9166Z" fill="#CCCCCC"/>
<path d="M120.218 222.105C118.886 227.66 117.203 228.982 115.61 228.603C114.016 228.224 113.115 226.287 114.447 220.732C115.779 215.177 120.433 208.486 120.433 208.486C120.433 208.486 121.55 216.549 120.218 222.105Z" fill="#CCCCCC"/>
<path d="M126.048 182.534C125.235 185.923 124.208 186.73 123.236 186.499C122.264 186.268 121.714 185.086 122.527 181.696C123.339 178.306 126.179 174.223 126.179 174.223C126.179 174.223 126.861 179.144 126.048 182.534Z" fill="#CCCCCC"/>
<path d="M100.64 198.961C99.8278 202.351 98.8011 203.158 97.8288 202.926C96.8565 202.695 96.3066 201.513 97.1193 198.124C97.932 194.734 100.772 190.651 100.772 190.651C100.772 190.651 101.453 195.571 100.64 198.961Z" fill="#CCCCCC"/>
<path d="M93.919 56.4959C92.5871 62.0511 90.9047 63.3734 89.3112 62.9943C87.7177 62.6153 86.8166 60.6785 88.1485 55.1233C89.4803 49.568 94.1343 42.877 94.1343 42.877C94.1343 42.877 95.2508 50.9406 93.919 56.4959Z" fill="#CCCCCC"/>
<path d="M90.3531 153.286C89.0212 158.841 87.3388 160.163 85.7453 159.784C84.1518 159.405 83.2507 157.469 84.5826 151.913C85.9144 146.358 90.5684 139.667 90.5684 139.667C90.5684 139.667 91.6849 147.731 90.3531 153.286Z" fill="#CCCCCC"/>
<path d="M96.1831 113.715C95.3704 117.105 94.3437 117.911 93.3714 117.68C92.3991 117.449 91.8492 116.267 92.6619 112.877C93.4746 109.487 96.3144 105.405 96.3144 105.405C96.3144 105.405 96.9958 110.325 96.1831 113.715Z" fill="#CCCCCC"/>
<path d="M70.7758 130.142C69.9631 133.532 68.9365 134.339 67.9642 134.108C66.9919 133.877 66.442 132.695 67.2547 129.305C68.0674 125.915 70.9072 121.832 70.9072 121.832C70.9072 121.832 71.5885 126.753 70.7758 130.142Z" fill="#CCCCCC"/>
<path d="M162.117 60.4917C160.786 66.047 159.103 67.3692 157.51 66.9902C155.916 66.6111 155.015 64.6744 156.347 59.1191C157.679 53.5639 162.333 46.8728 162.333 46.8728C162.333 46.8728 163.449 54.9364 162.117 60.4917Z" fill="#CCCCCC"/>
<path d="M158.552 157.282C157.22 162.837 155.537 164.159 153.944 163.78C152.35 163.401 151.449 161.464 152.781 155.909C154.113 150.354 158.767 143.663 158.767 143.663C158.767 143.663 159.883 151.726 158.552 157.282Z" fill="#CCCCCC"/>
<path d="M164.382 117.711C163.569 121.101 162.542 121.907 161.57 121.676C160.598 121.445 160.048 120.263 160.86 116.873C161.673 113.483 164.513 109.401 164.513 109.401C164.513 109.401 165.194 114.321 164.382 117.711Z" fill="#CCCCCC"/>
<path d="M225.413 79.1394C224.081 84.6947 222.398 86.0169 220.805 85.6379C219.211 85.2589 218.31 83.3221 219.642 77.7668C220.974 72.2116 225.628 65.5205 225.628 65.5205C225.628 65.5205 226.745 73.5841 225.413 79.1394Z" fill="#CCCCCC"/>
<path d="M205.836 55.996C205.023 59.3858 203.996 60.1926 203.024 59.9613C202.052 59.73 201.502 58.5482 202.314 55.1584C203.127 51.7686 205.967 47.6858 205.967 47.6858C205.967 47.6858 206.648 52.6062 205.836 55.996Z" fill="#CCCCCC"/>
<path d="M257.06 52.9439C255.729 58.4991 254.046 59.8214 252.453 59.4423C250.859 59.0633 249.958 57.1265 251.29 51.5713C252.622 46.016 257.276 39.325 257.276 39.325C257.276 39.325 258.392 47.3886 257.06 52.9439Z" fill="#CCCCCC"/>
<path d="M253.495 149.734C252.163 155.289 250.48 156.611 248.887 156.232C247.293 155.853 246.392 153.917 247.724 148.361C249.056 142.806 253.71 136.115 253.71 136.115C253.71 136.115 254.826 144.179 253.495 149.734Z" fill="#CCCCCC"/>
<path d="M259.325 110.163C258.512 113.553 257.485 114.36 256.513 114.128C255.541 113.897 254.991 112.715 255.803 109.325C256.616 105.936 259.456 101.853 259.456 101.853C259.456 101.853 260.137 106.773 259.325 110.163Z" fill="#CCCCCC"/>
<path d="M320.356 71.5915C319.024 77.1468 317.342 78.4691 315.748 78.09C314.155 77.711 313.254 75.7742 314.585 70.219C315.917 64.6637 320.571 57.9727 320.571 57.9727C320.571 57.9727 321.688 66.0363 320.356 71.5915Z" fill="#CCCCCC"/>
<path d="M300.779 48.4481C299.966 51.8379 298.939 52.6447 297.967 52.4135C296.995 52.1822 296.445 51.0004 297.257 47.6106C298.07 44.2208 300.91 40.1379 300.91 40.1379C300.91 40.1379 301.591 45.0584 300.779 48.4481Z" fill="#CCCCCC"/>
<path d="M294.057 116.435C292.725 121.99 291.043 123.312 289.449 122.933C287.856 122.554 286.955 120.617 288.287 115.062C289.618 109.507 294.272 102.816 294.272 102.816C294.272 102.816 295.389 110.879 294.057 116.435Z" fill="#CCCCCC"/>
<path d="M290.491 213.225C289.159 218.78 287.477 220.102 285.883 219.723C284.29 219.344 283.389 217.407 284.721 211.852C286.052 206.297 290.706 199.606 290.706 199.606C290.706 199.606 291.823 207.669 290.491 213.225Z" fill="#CCCCCC"/>
<path d="M296.321 173.654C295.508 177.043 294.482 177.85 293.509 177.619C292.537 177.388 291.987 176.206 292.8 172.816C293.613 169.426 296.453 165.344 296.453 165.344C296.453 165.344 297.134 170.264 296.321 173.654Z" fill="#CCCCCC"/>
<path d="M357.352 135.082C356.021 140.638 354.338 141.96 352.745 141.581C351.151 141.202 350.25 139.265 351.582 133.71C352.914 128.154 357.568 121.463 357.568 121.463C357.568 121.463 358.684 129.527 357.352 135.082Z" fill="#CCCCCC"/>
<path d="M337.775 111.939C336.962 115.329 335.936 116.135 334.963 115.904C333.991 115.673 333.441 114.491 334.254 111.101C335.067 107.711 337.906 103.629 337.906 103.629C337.906 103.629 338.588 108.549 337.775 111.939Z" fill="#CCCCCC"/>
<path d="M208.563 190.718C221.118 190.718 231.296 180.58 231.296 168.075C231.296 155.569 221.118 145.431 208.563 145.431C196.008 145.431 185.83 155.569 185.83 168.075C185.83 180.58 196.008 190.718 208.563 190.718Z" fill="#C9070C"/>
<path d="M190.271 177.58C188.797 177.539 186.963 177.488 185.55 176.46C185.13 176.141 184.784 175.735 184.538 175.269C184.291 174.803 184.15 174.29 184.124 173.764C184.099 173.39 184.16 173.016 184.304 172.67C184.448 172.324 184.67 172.015 184.953 171.769C185.691 171.148 186.769 171.002 187.93 171.342L186.727 162.584L187.61 162.464L189.025 172.76L188.287 172.423C187.432 172.032 186.259 171.834 185.529 172.447C185.35 172.608 185.21 172.807 185.121 173.03C185.032 173.253 184.996 173.493 185.015 173.732C185.037 174.124 185.143 174.506 185.326 174.853C185.509 175.2 185.765 175.503 186.076 175.743C187.175 176.543 188.637 176.646 190.296 176.693L190.271 177.58Z" fill="#2F2E41"/>
<path d="M197.514 163.34H192.713V164.228H197.514V163.34Z" fill="#2F2E41"/>
<path d="M210.154 145.364C210.321 142.688 211.063 140.078 212.331 137.712C213.599 135.346 215.363 133.279 217.502 131.651C219.713 130.021 222.264 128.907 224.966 128.394C227.668 127.881 230.452 127.981 233.11 128.686C235.751 129.37 238.201 130.642 240.277 132.406C242.353 134.17 243.999 136.381 245.093 138.871C246.193 141.343 246.742 144.023 246.702 146.726C246.581 149.666 245.847 152.549 244.549 155.192C243.208 158.101 241.517 160.83 240.049 163.674C238.603 166.478 237.355 169.38 236.315 172.357C234.199 178.424 232.95 184.757 232.606 191.171C232.06 201.281 233.031 216.04 244.489 219.92C247.403 220.907 250.546 221.091 253.601 221.083C256.819 221.122 260.028 220.747 263.149 219.969C268.558 218.53 273.693 215.152 275.998 209.903C276.529 208.691 276.885 207.41 277.056 206.098C277.104 205.738 276.714 205.435 276.387 205.432C276.211 205.436 276.044 205.508 275.919 205.632C275.795 205.756 275.723 205.923 275.719 206.098C274.972 211.691 270.293 215.981 265.213 217.909C262.244 218.981 259.126 219.582 255.97 219.69C252.829 219.848 249.568 219.824 246.493 219.104C243.755 218.514 241.264 217.103 239.355 215.062C237.652 213.11 236.383 210.822 235.629 208.348C233.82 202.849 233.631 196.803 233.948 191.072C234.308 184.68 235.583 178.371 237.736 172.338C238.823 169.293 240.135 166.331 241.66 163.477C243.15 160.686 244.804 157.974 246.06 155.065C247.285 152.391 247.959 149.499 248.041 146.561C248.051 143.847 247.509 141.16 246.447 138.661C245.404 136.152 243.839 133.891 241.856 132.027C239.874 130.163 237.517 128.738 234.942 127.845C232.323 126.937 229.541 126.584 226.776 126.81C224.012 127.035 221.325 127.834 218.889 129.155C216.571 130.482 214.54 132.253 212.914 134.367C211.288 136.48 210.098 138.894 209.414 141.468C209.082 142.743 208.881 144.049 208.816 145.364C208.772 146.221 210.11 146.219 210.154 145.364Z" fill="#2F2E41"/>
<path d="M214.599 145.832C214.964 143.361 216.207 141.103 218.101 139.468C220.115 137.787 222.696 136.933 225.32 137.082C226.18 137.124 226.178 135.792 225.32 135.75C222.469 135.621 219.669 136.542 217.455 138.336C215.24 140.129 213.765 142.671 213.31 145.478C213.181 146.316 214.469 146.678 214.599 145.832Z" fill="#2F2E41"/>
<path d="M214.382 147.251L208.033 145.163C207.472 144.979 207.007 144.579 206.741 144.054C206.475 143.528 206.43 142.918 206.615 142.359C206.801 141.8 207.201 141.337 207.729 141.072C208.257 140.808 208.869 140.763 209.43 140.947L215.779 143.035C216.341 143.22 216.805 143.619 217.071 144.145C217.337 144.671 217.382 145.28 217.197 145.839C217.012 146.398 216.611 146.861 216.083 147.126C215.555 147.391 214.943 147.436 214.382 147.251Z" fill="#2F2E41"/>
<path d="M224.672 273.386H182.866C182.098 273.385 181.362 273.081 180.819 272.54C180.275 271.999 179.97 271.265 179.969 270.5V263.947C179.97 263.182 180.275 262.449 180.819 261.908C181.362 261.366 182.098 261.062 182.866 261.061H224.672C225.44 261.062 226.177 261.366 226.72 261.908C227.263 262.449 227.569 263.182 227.57 263.947V270.5C227.569 271.265 227.263 271.999 226.72 272.54C226.177 273.081 225.44 273.385 224.672 273.386Z" fill="#CCCCCC"/>
<path d="M233.578 263.468C233.558 263.468 233.537 263.467 233.516 263.467L175.056 262.241C174.626 262.232 174.203 262.128 173.819 261.936C173.434 261.744 173.097 261.469 172.833 261.131C172.568 260.793 172.382 260.401 172.289 259.983C172.195 259.565 172.197 259.131 172.292 258.713L186.526 196.643C186.67 196.004 187.028 195.434 187.542 195.026C188.055 194.618 188.694 194.397 189.351 194.4H198.879C205.589 194.423 212.09 196.734 217.298 200.949C222.506 205.164 226.109 211.029 227.505 217.567L236.413 259.991C236.501 260.411 236.494 260.845 236.393 261.262C236.291 261.679 236.098 262.068 235.826 262.401C235.555 262.734 235.212 263.002 234.823 263.187C234.434 263.371 234.009 263.467 233.578 263.468Z" fill="#2F2E41"/>
<path d="M196.02 228.351C195.258 228.353 194.527 228.054 193.985 227.52L154.971 189.142C154.7 188.876 154.484 188.559 154.337 188.21C154.189 187.861 154.112 187.486 154.109 187.107C154.107 186.728 154.179 186.352 154.323 186.001C154.466 185.65 154.678 185.33 154.945 185.061L159.568 180.398C160.108 179.853 160.843 179.545 161.611 179.54C162.38 179.535 163.118 179.835 163.665 180.373L202.679 218.751C203.225 219.289 203.534 220.021 203.539 220.786C203.544 221.551 203.244 222.287 202.705 222.832L198.082 227.495C197.813 227.767 197.492 227.983 197.138 228.13C196.784 228.277 196.404 228.352 196.02 228.351Z" fill="#C9070C"/>
<path d="M194.216 229.514L177.061 212.841C176.526 212.321 176.213 211.615 176.186 210.871C176.159 210.127 176.421 209.401 176.917 208.844L184.138 200.737C184.423 200.417 184.776 200.164 185.171 199.996C185.566 199.828 185.994 199.749 186.424 199.765C186.853 199.781 187.274 199.892 187.655 200.09C188.036 200.287 188.369 200.566 188.629 200.907L206.985 219.541C207.499 220.113 207.766 220.864 207.725 221.631C207.685 222.398 207.341 223.117 206.769 223.632L198.328 229.731C197.753 230.245 196.998 230.51 196.227 230.47C195.456 230.429 194.733 230.085 194.216 229.514Z" fill="#2F2E41"/>
<path d="M359.469 311.821H30.3808C30.311 311.821 30.2418 311.808 30.1772 311.781C30.1126 311.755 30.054 311.716 30.0045 311.667C29.9551 311.618 29.9158 311.559 29.8891 311.495C29.8623 311.431 29.8485 311.362 29.8485 311.293C29.8485 311.223 29.8623 311.154 29.8891 311.09C29.9158 311.026 29.9551 310.967 30.0045 310.918C30.054 310.869 30.1126 310.83 30.1772 310.804C30.2418 310.777 30.311 310.764 30.3808 310.764H359.469C359.539 310.764 359.608 310.777 359.673 310.804C359.737 310.83 359.796 310.869 359.846 310.918C359.895 310.967 359.934 311.026 359.961 311.09C359.988 311.154 360.002 311.223 360.002 311.293C360.002 311.362 359.988 311.431 359.961 311.495C359.934 311.559 359.895 311.618 359.846 311.667C359.796 311.716 359.737 311.755 359.673 311.781C359.608 311.808 359.539 311.821 359.469 311.821Z" fill="#3F3D56"/>
</g>
<defs>
<clipPath id="clip0_32_17614">
<rect width="360" height="311.643" fill="white" transform="translate(0 0.178711)"/>
</clipPath>
</defs>
</svg>
