<svg width="148" height="135" viewBox="0 0 148 135" fill="none" xmlns="http://www.w3.org/2000/svg">
<path d="M87.7247 134.808H85.0382C84.7004 134.808 84.3766 134.666 84.1377 134.413C83.8989 134.161 83.7645 133.819 83.7642 133.462V109.802C83.7645 109.445 83.8989 109.103 84.1377 108.85C84.3766 108.598 84.7004 108.456 85.0382 108.456H87.7247C88.0625 108.456 88.3863 108.598 88.6252 108.85C88.864 109.103 88.9984 109.445 88.9988 109.802V133.462C88.9984 133.819 88.864 134.161 88.6252 134.413C88.3863 134.666 88.0625 134.808 87.7247 134.808Z" fill="#C9070C"/>
<path d="M82.0473 134.808H79.3609C79.0231 134.808 78.6992 134.666 78.4604 134.413C78.2215 134.161 78.0872 133.819 78.0868 133.462V109.802C78.0872 109.445 78.2215 109.103 78.4604 108.85C78.6992 108.598 79.0231 108.456 79.3609 108.456H82.0473C82.3851 108.456 82.7089 108.598 82.9478 108.85C83.1866 109.103 83.321 109.445 83.3213 109.802V133.462C83.321 133.819 83.1866 134.161 82.9478 134.413C82.7089 134.666 82.3851 134.808 82.0473 134.808Z" fill="#C9070C"/>
<path d="M11.2952 58.2463C10.7513 60.6528 10.0644 61.2256 9.41368 61.0614C8.76301 60.8972 8.39506 60.0582 8.93891 57.6517C9.48276 55.2453 11.3831 52.3468 11.3831 52.3468C11.3831 52.3468 11.839 55.8399 11.2952 58.2463Z" fill="#CCCCCC"/>
<path d="M9.83902 100.175C9.29517 102.581 8.60818 103.154 7.95751 102.99C7.30684 102.826 6.93889 101.987 7.48273 99.5801C8.02658 97.1736 9.92694 94.2751 9.92694 94.2751C9.92694 94.2751 10.3829 97.7682 9.83902 100.175Z" fill="#CCCCCC"/>
<path d="M89.528 25.2382C89.528 25.2382 90.7745 22.4515 88.7602 21.727C86.746 21.0025 86.8908 23.9211 86.8908 23.9211L89.3411 25.4576" fill="#3F3D56"/>
<path d="M47.2037 33.4375L43.0289 37.0136C43.0289 37.0136 105.658 59.2551 112.801 63.6673L112.096 57.435L106.179 49.8191L94.7168 42.0925L76.2146 36.0104L56.0512 28.348L47.2037 33.4375Z" fill="#C9070C"/>
<path d="M79.1001 42.331L64.9308 79.6997C64.9308 79.6997 62.6662 85.8876 67.6708 87.0735C70.6797 87.7865 72.2703 85.8577 73.0604 84.2061C73.9043 82.442 71.6135 80.8907 70.4686 82.4539C70.45 82.4793 70.4314 82.5052 70.4127 82.5315C70.3848 82.5711 67.3827 85.0326 67.3845 81.6638C67.3918 80.8871 67.5443 80.1196 67.833 79.4053L81.758 44.0651L79.1001 42.331Z" fill="#3F3D56"/>
<path d="M88.0899 23.6522C88.0899 23.6522 84.1027 23.037 81.8601 21.698C81.8601 21.698 57.2523 16.1633 43.0443 36.8104C43.0443 36.8104 109.932 53.1716 112.816 63.464C112.816 63.464 117.015 44.4171 94.7763 26.8354C94.7763 26.8354 89.3357 24.8374 88.0899 23.6522Z" fill="#3F3D56"/>
<path d="M12.2196 83.033C11.8878 84.5014 11.4686 84.8509 11.0716 84.7507C10.6745 84.6505 10.45 84.1385 10.7818 82.6701C11.1137 81.2017 12.2733 79.4331 12.2733 79.4331C12.2733 79.4331 12.5515 81.5646 12.2196 83.033Z" fill="#CCCCCC"/>
<path d="M1.845 90.1492C1.51315 91.6177 1.09395 91.9671 0.696919 91.867C0.299885 91.7668 0.0753653 91.2548 0.407214 89.7864C0.739062 88.318 1.89865 86.5493 1.89865 86.5493C1.89865 86.5493 2.17686 88.6808 1.845 90.1492Z" fill="#CCCCCC"/>
<path d="M78.0933 20.7416C77.5494 23.1481 76.8624 23.7209 76.2118 23.5567C75.5611 23.3925 75.1932 22.5535 75.737 20.147C76.2809 17.7406 78.1812 14.8421 78.1812 14.8421C78.1812 14.8421 78.6371 18.3351 78.0933 20.7416Z" fill="#CCCCCC"/>
<path d="M80.4739 3.59988C80.1421 5.0683 79.7229 5.4178 79.3258 5.31761C78.9288 5.21742 78.7043 4.70547 79.0361 3.23705C79.368 1.76863 80.5276 0 80.5276 0C80.5276 0 80.8058 2.13147 80.4739 3.59988Z" fill="#CCCCCC"/>
<path d="M70.0992 10.7162C69.7673 12.1846 69.3481 12.5341 68.9511 12.4339C68.554 12.3337 68.3295 11.8217 68.6614 10.3533C68.9932 8.88491 70.1528 7.11627 70.1528 7.11627C70.1528 7.11627 70.431 9.24775 70.0992 10.7162Z" fill="#CCCCCC"/>
<path d="M49.3355 96.1357C48.7916 98.5422 48.1046 99.115 47.454 98.9508C46.8033 98.7866 46.4353 97.9476 46.9792 95.5411C47.523 93.1347 49.4234 90.2362 49.4234 90.2362C49.4234 90.2362 49.8793 93.7292 49.3355 96.1357Z" fill="#CCCCCC"/>
<path d="M51.7161 78.994C51.3842 80.4624 50.965 80.8119 50.568 80.7117C50.171 80.6115 49.9465 80.0996 50.2783 78.6312C50.6102 77.1627 51.7697 75.3941 51.7697 75.3941C51.7697 75.3941 52.0479 77.5256 51.7161 78.994Z" fill="#CCCCCC"/>
<path d="M41.3415 86.1103C41.0096 87.5787 40.5904 87.9282 40.1934 87.828C39.7963 87.7278 39.5718 87.2159 39.9037 85.7475C40.2355 84.279 41.3951 82.5104 41.3951 82.5104C41.3951 82.5104 41.6733 84.6419 41.3415 86.1103Z" fill="#CCCCCC"/>
<path d="M38.5968 24.3959C38.053 26.8024 37.366 27.3752 36.7153 27.211C36.0646 27.0468 35.6967 26.2078 36.2405 23.8013C36.7844 21.3949 38.6848 18.4964 38.6848 18.4964C38.6848 18.4964 39.1407 21.9894 38.5968 24.3959Z" fill="#CCCCCC"/>
<path d="M37.1408 66.3243C36.5969 68.7308 35.9099 69.3035 35.2593 69.1394C34.6086 68.9752 34.2406 68.1362 34.7845 65.7297C35.3283 63.3232 37.2287 60.4247 37.2287 60.4247C37.2287 60.4247 37.6846 63.9178 37.1408 66.3243Z" fill="#CCCCCC"/>
<path d="M39.5214 49.1826C39.1895 50.651 38.7703 51.0005 38.3733 50.9003C37.9763 50.8001 37.7518 50.2881 38.0836 48.8197C38.4155 47.3513 39.575 45.5827 39.575 45.5827C39.575 45.5827 39.8532 47.7141 39.5214 49.1826Z" fill="#CCCCCC"/>
<path d="M29.1466 56.2988C28.8148 57.7673 28.3956 58.1168 27.9986 58.0166C27.6015 57.9164 27.377 57.4044 27.7089 55.936C28.0407 54.4676 29.2003 52.6989 29.2003 52.6989C29.2003 52.6989 29.4785 54.8304 29.1466 56.2988Z" fill="#CCCCCC"/>
<path d="M66.4445 26.1269C65.9006 28.5334 65.2136 29.1062 64.563 28.942C63.9123 28.7778 63.5444 27.9388 64.0882 25.5323C64.632 23.1259 66.5324 20.2274 66.5324 20.2274C66.5324 20.2274 66.9883 23.7204 66.4445 26.1269Z" fill="#CCCCCC"/>
<path d="M64.9884 68.0553C64.4446 70.4617 63.7576 71.0345 63.1069 70.8703C62.4562 70.7061 62.0883 69.8671 62.6321 67.4607C63.176 65.0542 65.0764 62.1557 65.0764 62.1557C65.0764 62.1557 65.5323 65.6488 64.9884 68.0553Z" fill="#CCCCCC"/>
<path d="M67.3691 50.9135C67.0372 52.3819 66.618 52.7314 66.221 52.6313C65.8239 52.5311 65.5994 52.0191 65.9313 50.5507C66.2631 49.0823 67.4227 47.3136 67.4227 47.3136C67.4227 47.3136 67.7009 49.4451 67.3691 50.9135Z" fill="#CCCCCC"/>
<path d="M92.2902 34.2048C91.7463 36.6113 91.0593 37.1841 90.4087 37.0199C89.758 36.8557 89.3901 36.0167 89.9339 33.6103C90.4778 31.2038 92.3781 28.3053 92.3781 28.3053C92.3781 28.3053 92.834 31.7984 92.2902 34.2048Z" fill="#CCCCCC"/>
<path d="M84.2961 24.1794C83.9642 25.6478 83.545 25.9973 83.148 25.8971C82.7509 25.7969 82.5264 25.285 82.8583 23.8166C83.1901 22.3481 84.3497 20.5795 84.3497 20.5795C84.3497 20.5795 84.6279 22.711 84.2961 24.1794Z" fill="#CCCCCC"/>
<path d="M105.213 22.8573C104.669 25.2637 103.982 25.8365 103.331 25.6723C102.681 25.5081 102.313 24.6691 102.857 22.2627C103.4 19.8562 105.301 16.9577 105.301 16.9577C105.301 16.9577 105.757 20.4508 105.213 22.8573Z" fill="#CCCCCC"/>
<path d="M103.757 64.7856C103.213 67.1921 102.526 67.7649 101.875 67.6007C101.225 67.4365 100.857 66.5975 101.401 64.191C101.944 61.7846 103.845 58.8861 103.845 58.8861C103.845 58.8861 104.301 62.3791 103.757 64.7856Z" fill="#CCCCCC"/>
<path d="M106.137 47.6439C105.806 49.1123 105.386 49.4618 104.989 49.3616C104.592 49.2614 104.368 48.7495 104.7 47.2811C105.032 45.8126 106.191 44.044 106.191 44.044C106.191 44.044 106.469 46.1755 106.137 47.6439Z" fill="#CCCCCC"/>
<path d="M131.058 30.9352C130.515 33.3417 129.828 33.9145 129.177 33.7503C128.526 33.5861 128.158 32.7471 128.702 30.3406C129.246 27.9342 131.146 25.0357 131.146 25.0357C131.146 25.0357 131.602 28.5287 131.058 30.9352Z" fill="#CCCCCC"/>
<path d="M123.064 20.9097C122.733 22.3782 122.313 22.7277 121.916 22.6275C121.519 22.5273 121.295 22.0153 121.627 20.5469C121.959 19.0785 123.118 17.3099 123.118 17.3099C123.118 17.3099 123.396 19.4413 123.064 20.9097Z" fill="#CCCCCC"/>
<path d="M120.32 50.3607C119.776 52.7672 119.089 53.34 118.438 53.1758C117.788 53.0116 117.42 52.1726 117.964 49.7661C118.507 47.3597 120.408 44.4612 120.408 44.4612C120.408 44.4612 120.864 47.9543 120.32 50.3607Z" fill="#CCCCCC"/>
<path d="M118.864 92.2891C118.32 94.6956 117.633 95.2683 116.982 95.1042C116.332 94.94 115.964 94.101 116.508 91.6945C117.051 89.288 118.952 86.3895 118.952 86.3895C118.952 86.3895 119.408 89.8826 118.864 92.2891Z" fill="#CCCCCC"/>
<path d="M121.244 75.1473C120.913 76.6158 120.493 76.9653 120.096 76.8651C119.699 76.7649 119.475 76.2529 119.807 74.7845C120.138 73.3161 121.298 71.5475 121.298 71.5475C121.298 71.5475 121.576 73.6789 121.244 75.1473Z" fill="#CCCCCC"/>
<path d="M146.165 58.4387C145.622 60.8452 144.935 61.4179 144.284 61.2537C143.633 61.0896 143.265 60.2506 143.809 57.8441C144.353 55.4376 146.253 52.5391 146.253 52.5391C146.253 52.5391 146.709 56.0322 146.165 58.4387Z" fill="#CCCCCC"/>
<path d="M138.171 48.4132C137.84 49.8816 137.42 50.2311 137.023 50.131C136.626 50.0308 136.402 49.5188 136.734 48.0504C137.065 46.582 138.225 44.8133 138.225 44.8133C138.225 44.8133 138.503 46.9448 138.171 48.4132Z" fill="#CCCCCC"/>
<path d="M85.4099 82.5396C90.5365 82.5396 94.6925 78.148 94.6925 72.7306C94.6925 67.3133 90.5365 62.9217 85.4099 62.9217C80.2833 62.9217 76.1273 67.3133 76.1273 72.7306C76.1273 78.148 80.2833 82.5396 85.4099 82.5396Z" fill="#C9070C"/>
<path d="M77.9404 76.8483C77.3386 76.8305 76.5896 76.8083 76.013 76.3631C75.8412 76.2251 75.7 76.049 75.5994 75.8472C75.4988 75.6454 75.4411 75.4229 75.4305 75.1951C75.4201 75.0332 75.4453 74.871 75.504 74.7211C75.5628 74.5712 75.6535 74.4377 75.7692 74.3311C76.0704 74.0619 76.5105 73.9988 76.9846 74.1462L76.4934 70.3522L76.854 70.3L77.4316 74.7602L77.1304 74.6142C76.7813 74.4451 76.3021 74.359 76.0041 74.6248C75.931 74.6943 75.874 74.7807 75.8376 74.8773C75.8012 74.9738 75.7864 75.0779 75.7943 75.1815C75.8031 75.3511 75.8464 75.5166 75.9212 75.6669C75.996 75.8172 76.1005 75.9487 76.2277 76.0525C76.6765 76.399 77.2735 76.4437 77.9506 76.4638L77.9404 76.8483Z" fill="#2F2E41"/>
<path d="M80.8983 70.6794H78.9377V71.0641H80.8983V70.6794Z" fill="#2F2E41"/>
<path d="M86.0593 62.8927C86.1276 61.7332 86.4309 60.6027 86.9486 59.5778C87.4663 58.553 88.1864 57.6576 89.0601 56.9524C89.9628 56.246 91.0045 55.7637 92.1079 55.5414C93.2112 55.319 94.3478 55.3623 95.4332 55.668C96.5115 55.9641 97.5122 56.515 98.3598 57.2793C99.2074 58.0435 99.8797 59.0011 100.326 60.0798C100.775 61.1505 101 62.3115 100.983 63.4826C100.934 64.7562 100.634 66.005 100.104 67.1499C99.5566 68.4101 98.8663 69.5923 98.2667 70.8242C97.6762 72.039 97.1667 73.2958 96.742 74.5856C95.8778 77.2137 95.3679 79.9572 95.2273 82.7355C95.0045 87.115 95.401 93.5088 100.08 95.1896C101.269 95.617 102.553 95.6965 103.8 95.6931C105.114 95.71 106.425 95.5478 107.699 95.2105C109.908 94.5873 112.005 93.1238 112.946 90.85C113.163 90.3249 113.308 89.77 113.378 89.2019C113.397 89.0461 113.238 88.9148 113.105 88.9134C113.033 88.9152 112.964 88.9462 112.914 88.9999C112.863 89.0536 112.833 89.1259 112.832 89.2019C112.527 91.6249 110.616 93.483 108.542 94.3183C107.33 94.7825 106.056 95.0429 104.768 95.0898C103.485 95.1583 102.154 95.1477 100.898 94.8358C99.78 94.5802 98.7629 93.9692 97.9831 93.085C97.288 92.2394 96.7696 91.2483 96.4616 90.1765C95.7231 87.7945 95.6457 85.1755 95.7755 82.6928C95.9224 79.9236 96.4432 77.1909 97.3222 74.5776C97.7662 73.2582 98.3018 71.9752 98.9246 70.7391C99.533 69.53 100.208 68.3552 100.721 67.0949C101.221 65.9366 101.496 64.6839 101.53 63.4111C101.534 62.2357 101.313 61.0715 100.879 59.989C100.453 58.9021 99.8142 57.9227 99.0046 57.1152C98.195 56.3077 97.2329 55.6903 96.1814 55.3036C95.1117 54.9101 93.9759 54.7573 92.847 54.855C91.7181 54.9527 90.621 55.2988 89.6261 55.871C88.6798 56.4458 87.8506 57.2132 87.1866 58.1288C86.5225 59.0443 86.0368 60.0898 85.7575 61.2049C85.6217 61.7572 85.5399 62.3227 85.5133 62.8927C85.4953 63.2638 86.0413 63.2628 86.0593 62.8927Z" fill="#2F2E41"/>
<path d="M87.8746 63.0952C88.0235 62.0251 88.531 61.0469 89.3046 60.3386C90.1269 59.6103 91.181 59.2405 92.2523 59.3047C92.6035 59.3233 92.6026 58.7462 92.2523 58.7277C91.088 58.6722 89.945 59.0709 89.0407 59.8479C88.1365 60.6249 87.534 61.7261 87.348 62.9419C87.2956 63.3051 87.8216 63.4617 87.8746 63.0952Z" fill="#2F2E41"/>
<path d="M87.7859 63.7101L85.1933 62.8056C84.9642 62.7256 84.7744 62.5527 84.6659 62.3249C84.5573 62.0971 84.5388 61.8331 84.6145 61.5909C84.6902 61.3487 84.8538 61.1482 85.0694 61.0335C85.285 60.9188 85.5348 60.8993 85.764 60.9793L88.3565 61.8838C88.5857 61.9638 88.7755 62.1367 88.884 62.3645C88.9926 62.5923 89.011 62.8563 88.9354 63.0985C88.8597 63.3407 88.6961 63.5412 88.4805 63.6559C88.2649 63.7706 88.015 63.7901 87.7859 63.7101Z" fill="#2F2E41"/>
<path d="M91.9877 118.35H74.917C74.6033 118.35 74.3026 118.218 74.0808 117.984C73.859 117.749 73.7342 117.432 73.7339 117.1V114.261C73.7342 113.93 73.859 113.612 74.0808 113.378C74.3026 113.144 74.6033 113.012 74.917 113.011H91.9877C92.3014 113.012 92.6021 113.144 92.8239 113.378C93.0457 113.612 93.1704 113.93 93.1708 114.261V117.1C93.1704 117.432 93.0457 117.749 92.8239 117.984C92.6021 118.218 92.3014 118.35 91.9877 118.35Z" fill="#CCCCCC"/>
<path d="M95.6244 114.054C95.6159 114.054 95.6074 114.054 95.5989 114.053L71.7277 113.522C71.5521 113.518 71.3796 113.473 71.2225 113.39C71.0655 113.307 70.928 113.188 70.8199 113.042C70.7119 112.895 70.636 112.725 70.5978 112.544C70.5597 112.363 70.5602 112.175 70.5993 111.994L76.4113 85.1061C76.47 84.8295 76.6163 84.5823 76.8261 84.4056C77.0358 84.2289 77.2964 84.1331 77.5647 84.1343H81.4553C84.1955 84.1443 86.8499 85.1456 88.9766 86.9715C91.1033 88.7974 92.5742 91.3379 93.1445 94.1701L96.7818 112.548C96.8178 112.729 96.815 112.918 96.7735 113.098C96.7321 113.279 96.653 113.447 96.5422 113.592C96.4313 113.736 96.2914 113.852 96.1327 113.932C95.9739 114.012 95.8003 114.054 95.6244 114.054Z" fill="#2F2E41"/>
<path d="M80.2881 98.8419C79.977 98.8424 79.6782 98.7131 79.4569 98.4819L63.5262 81.8568C63.4157 81.7415 63.3277 81.6042 63.2674 81.4529C63.207 81.3017 63.1754 81.1393 63.1745 80.9751C63.1735 80.8109 63.2031 80.6482 63.2617 80.4961C63.3203 80.344 63.4066 80.2056 63.5158 80.0888L65.4034 78.069C65.6239 77.8331 65.9241 77.6994 66.2378 77.6974C66.5516 77.6953 66.8533 77.825 67.0765 78.058L83.0072 94.683C83.2301 94.9161 83.3564 95.2332 83.3584 95.5647C83.3603 95.8962 83.2378 96.2149 83.0176 96.451L81.13 98.4708C81.02 98.5886 80.8889 98.6821 80.7444 98.7458C80.5998 98.8095 80.4447 98.8422 80.2881 98.8419Z" fill="#C9070C"/>
<path d="M79.5516 99.3454L72.5466 92.1227C72.3281 91.8974 72.2001 91.5919 72.1891 91.2696C72.1781 90.9472 72.285 90.6328 72.4876 90.3915L75.4361 86.8797C75.5526 86.741 75.6967 86.6313 75.8581 86.5585C76.0195 86.4856 76.1941 86.4515 76.3695 86.4585C76.5449 86.4656 76.7166 86.5136 76.8723 86.5991C77.028 86.6846 77.1639 86.8056 77.2701 86.9532L84.7654 95.0254C84.9755 95.273 85.0842 95.5985 85.0677 95.9307C85.0511 96.2628 84.9108 96.5745 84.6772 96.7975L81.2304 99.4394C80.9959 99.6619 80.6874 99.777 80.3726 99.7594C80.0579 99.7417 79.7626 99.5929 79.5516 99.3454Z" fill="#2F2E41"/>
<path d="M147.03 135H12.652C12.6235 135 12.5953 134.994 12.5689 134.983C12.5425 134.971 12.5186 134.954 12.4984 134.933C12.4782 134.912 12.4622 134.887 12.4513 134.859C12.4403 134.831 12.4347 134.801 12.4347 134.771C12.4347 134.741 12.4403 134.711 12.4513 134.683C12.4622 134.655 12.4782 134.63 12.4984 134.609C12.5186 134.588 12.5425 134.571 12.5689 134.559C12.5953 134.548 12.6235 134.542 12.652 134.542H147.03C147.058 134.542 147.087 134.548 147.113 134.559C147.139 134.571 147.163 134.588 147.183 134.609C147.204 134.63 147.22 134.655 147.231 134.683C147.242 134.711 147.247 134.741 147.247 134.771C147.247 134.801 147.242 134.831 147.231 134.859C147.22 134.887 147.204 134.912 147.183 134.933C147.163 134.954 147.139 134.971 147.113 134.983C147.087 134.994 147.058 135 147.03 135Z" fill="#3F3D56"/>
</svg>
