<svg width="82" height="79" viewBox="0 0 82 79" fill="none" xmlns="http://www.w3.org/2000/svg">
<path d="M48.9487 78.1003H47.4684C47.2823 78.1001 47.1038 78.018 46.9722 77.8722C46.8406 77.7264 46.7666 77.5286 46.7664 77.3224V63.6524C46.7666 63.4462 46.8406 63.2485 46.9722 63.1027C47.1038 62.9568 47.2823 62.8748 47.4684 62.8746H48.9487C49.1348 62.8748 49.3133 62.9568 49.4449 63.1027C49.5765 63.2485 49.6505 63.4462 49.6507 63.6524V77.3224C49.6505 77.5286 49.5765 77.7264 49.4449 77.8722C49.3133 78.018 49.1348 78.1001 48.9487 78.1003Z" fill="#C9070C"/>
<path d="M45.8205 78.1003H44.3402C44.1541 78.1001 43.9757 78.018 43.844 77.8722C43.7124 77.7264 43.6384 77.5286 43.6382 77.3224V63.6524C43.6384 63.4462 43.7124 63.2485 43.844 63.1027C43.9757 62.9568 44.1541 62.8748 44.3402 62.8746H45.8205C46.0066 62.8748 46.1851 62.9568 46.3167 63.1027C46.4483 63.2485 46.5223 63.4462 46.5225 63.6524V77.3224C46.5223 77.5286 46.4483 77.7264 46.3167 77.8722C46.1851 78.018 46.0066 78.1001 45.8205 78.1003Z" fill="#C9070C"/>
<path d="M6.83453 33.8647C6.53486 35.2551 6.15631 35.586 5.79778 35.4912C5.43925 35.3963 5.2365 34.9115 5.53617 33.5211C5.83584 32.1307 6.88298 30.4561 6.88298 30.4561C6.88298 30.4561 7.1342 32.4743 6.83453 33.8647Z" fill="#CCCCCC"/>
<path d="M6.03229 58.09C5.73261 59.4804 5.35407 59.8113 4.99553 59.7165C4.637 59.6216 4.43425 59.1368 4.73392 57.7464C5.03359 56.356 6.08073 54.6813 6.08073 54.6813C6.08073 54.6813 6.33196 56.6996 6.03229 58.09Z" fill="#CCCCCC"/>
<path d="M49.9424 14.7933C49.9424 14.7933 50.6293 13.1832 49.5194 12.7646C48.4095 12.346 48.4893 14.0323 48.4893 14.0323L49.8394 14.9201" fill="#3F3D56"/>
<path d="M26.6209 19.5307L24.3206 21.5969C24.3206 21.5969 58.8305 34.4475 62.7665 36.9968L62.378 33.3959L59.1174 28.9956L52.8016 24.5314L42.6065 21.0173L31.4961 16.5901L26.6209 19.5307Z" fill="#C9070C"/>
<path d="M44.1964 24.6691L36.3888 46.2599C36.3888 46.2599 35.141 49.8351 37.8986 50.5204C39.5566 50.9323 40.433 49.8179 40.8684 48.8636C41.3334 47.8444 40.0711 46.9481 39.4403 47.8513C39.43 47.8659 39.4198 47.8809 39.4095 47.8961C39.3941 47.9189 37.7399 49.3412 37.7408 47.3947C37.7449 46.946 37.8289 46.5025 37.988 46.0898L45.6609 25.6711L44.1964 24.6691Z" fill="#3F3D56"/>
<path d="M49.1501 13.877C49.1501 13.877 46.9531 13.5215 45.7174 12.7479C45.7174 12.7479 32.158 9.55006 24.3291 21.4795C24.3291 21.4795 61.1854 30.9326 62.775 36.8794C62.775 36.8794 65.0882 25.8744 52.8345 15.7161C52.8345 15.7161 49.8366 14.5618 49.1501 13.877Z" fill="#3F3D56"/>
<path d="M7.3439 48.1858C7.16104 49.0343 6.93005 49.2362 6.71128 49.1783C6.49251 49.1204 6.36879 48.8246 6.55165 47.9762C6.7345 47.1278 7.37346 46.1059 7.37346 46.1059C7.37346 46.1059 7.52675 47.3374 7.3439 48.1858Z" fill="#CCCCCC"/>
<path d="M1.62735 52.2975C1.44449 53.1459 1.2135 53.3478 0.994727 53.2899C0.775953 53.232 0.652238 52.9362 0.835093 52.0878C1.01795 51.2394 1.65691 50.2175 1.65691 50.2175C1.65691 50.2175 1.8102 51.449 1.62735 52.2975Z" fill="#CCCCCC"/>
<path d="M43.6417 12.1953C43.342 13.5857 42.9634 13.9167 42.6049 13.8218C42.2464 13.7269 42.0436 13.2422 42.3433 11.8518C42.643 10.4614 43.6901 8.78668 43.6901 8.78668C43.6901 8.78668 43.9413 10.8049 43.6417 12.1953Z" fill="#CCCCCC"/>
<path d="M44.9535 2.29117C44.7707 3.13959 44.5397 3.34153 44.3209 3.28364C44.1021 3.22575 43.9784 2.92996 44.1613 2.08154C44.3441 1.23312 44.9831 0.211243 44.9831 0.211243C44.9831 0.211243 45.1364 1.44276 44.9535 2.29117Z" fill="#CCCCCC"/>
<path d="M39.2367 6.40281C39.0539 7.25123 38.8229 7.45316 38.6041 7.39528C38.3853 7.33739 38.2616 7.04159 38.4445 6.19317C38.6273 5.34475 39.2663 4.32288 39.2663 4.32288C39.2663 4.32288 39.4196 5.5544 39.2367 6.40281Z" fill="#CCCCCC"/>
<path d="M27.7955 55.7563C27.4958 57.1468 27.1172 57.4777 26.7587 57.3828C26.4002 57.288 26.1974 56.8032 26.4971 55.4128C26.7968 54.0224 27.8439 52.3477 27.8439 52.3477C27.8439 52.3477 28.0951 54.3659 27.7955 55.7563Z" fill="#CCCCCC"/>
<path d="M29.1073 45.8522C28.9245 46.7006 28.6935 46.9026 28.4747 46.8447C28.2559 46.7868 28.1322 46.491 28.3151 45.6426C28.4979 44.7942 29.1369 43.7723 29.1369 43.7723C29.1369 43.7723 29.2902 45.0038 29.1073 45.8522Z" fill="#CCCCCC"/>
<path d="M23.3908 49.9638C23.2079 50.8123 22.9769 51.0142 22.7582 50.9563C22.5394 50.8984 22.4157 50.6026 22.5985 49.7542C22.7814 48.9058 23.4203 47.8839 23.4203 47.8839C23.4203 47.8839 23.5736 49.1154 23.3908 49.9638Z" fill="#CCCCCC"/>
<path d="M21.8782 14.3066C21.5786 15.6971 21.2 16.028 20.8415 15.9331C20.4829 15.8383 20.2802 15.3535 20.5799 13.9631C20.8795 12.5727 21.9267 10.898 21.9267 10.898C21.9267 10.898 22.1779 12.9162 21.8782 14.3066Z" fill="#CCCCCC"/>
<path d="M21.076 38.5319C20.7763 39.9223 20.3978 40.2533 20.0392 40.1584C19.6807 40.0635 19.478 39.5788 19.7776 38.1884C20.0773 36.798 21.1244 35.1233 21.1244 35.1233C21.1244 35.1233 21.3757 37.1415 21.076 38.5319Z" fill="#CCCCCC"/>
<path d="M22.3878 28.6278C22.205 29.4763 21.974 29.6782 21.7552 29.6203C21.5365 29.5624 21.4127 29.2666 21.5956 28.4182C21.7784 27.5698 22.4174 26.5479 22.4174 26.5479C22.4174 26.5479 22.5707 27.7794 22.3878 28.6278Z" fill="#CCCCCC"/>
<path d="M16.671 32.7395C16.4882 33.5879 16.2572 33.7898 16.0384 33.7319C15.8197 33.6741 15.6959 33.3783 15.8788 32.5298C16.0617 31.6814 16.7006 30.6595 16.7006 30.6595C16.7006 30.6595 16.8539 31.8911 16.671 32.7395Z" fill="#CCCCCC"/>
<path d="M37.223 15.3068C36.9233 16.6972 36.5447 17.0281 36.1862 16.9332C35.8277 16.8384 35.6249 16.3536 35.9246 14.9632C36.2243 13.5728 37.2714 11.8981 37.2714 11.8981C37.2714 11.8981 37.5226 13.9163 37.223 15.3068Z" fill="#CCCCCC"/>
<path d="M36.4207 39.532C36.121 40.9225 35.7425 41.2534 35.384 41.1585C35.0254 41.0637 34.8227 40.5789 35.1224 39.1885C35.422 37.7981 36.4692 36.1234 36.4692 36.1234C36.4692 36.1234 36.7204 38.1416 36.4207 39.532Z" fill="#CCCCCC"/>
<path d="M37.7323 29.628C37.5495 30.4764 37.3185 30.6783 37.0997 30.6204C36.8809 30.5625 36.7572 30.2667 36.9401 29.4183C37.1229 28.5699 37.7619 27.548 37.7619 27.548C37.7619 27.548 37.9152 28.7796 37.7323 29.628Z" fill="#CCCCCC"/>
<path d="M51.4644 19.9741C51.1647 21.3645 50.7862 21.6954 50.4277 21.6005C50.0691 21.5057 49.8664 21.0209 50.1661 19.6305C50.4657 18.2401 51.5129 16.5654 51.5129 16.5654C51.5129 16.5654 51.7641 18.5836 51.4644 19.9741Z" fill="#CCCCCC"/>
<path d="M47.0595 14.1816C46.8766 15.03 46.6456 15.2319 46.4269 15.174C46.2081 15.1161 46.0844 14.8203 46.2672 13.9719C46.4501 13.1235 47.089 12.1016 47.089 12.1016C47.089 12.1016 47.2423 13.3331 47.0595 14.1816Z" fill="#CCCCCC"/>
<path d="M58.5853 13.4177C58.2856 14.8081 57.907 15.139 57.5485 15.0441C57.19 14.9493 56.9872 14.4645 57.2869 13.0741C57.5866 11.6837 58.6337 10.009 58.6337 10.009C58.6337 10.009 58.8849 12.0272 58.5853 13.4177Z" fill="#CCCCCC"/>
<path d="M57.7828 37.6429C57.4831 39.0334 57.1046 39.3643 56.746 39.2694C56.3875 39.1746 56.1847 38.6898 56.4844 37.2994C56.7841 35.909 57.8312 34.2343 57.8312 34.2343C57.8312 34.2343 58.0824 36.2525 57.7828 37.6429Z" fill="#CCCCCC"/>
<path d="M59.0946 27.7388C58.9118 28.5872 58.6808 28.7892 58.462 28.7313C58.2432 28.6734 58.1195 28.3776 58.3024 27.5292C58.4852 26.6807 59.1242 25.6589 59.1242 25.6589C59.1242 25.6589 59.2775 26.8904 59.0946 27.7388Z" fill="#CCCCCC"/>
<path d="M72.8267 18.0849C72.527 19.4753 72.1485 19.8063 71.79 19.7114C71.4314 19.6165 71.2287 19.1318 71.5284 17.7414C71.828 16.351 72.8752 14.6763 72.8752 14.6763C72.8752 14.6763 73.1264 16.6945 72.8267 18.0849Z" fill="#CCCCCC"/>
<path d="M68.4218 12.2925C68.2389 13.1409 68.0079 13.3428 67.7892 13.2849C67.5704 13.227 67.4467 12.9312 67.6295 12.0828C67.8124 11.2344 68.4513 10.2125 68.4513 10.2125C68.4513 10.2125 68.6046 11.444 68.4218 12.2925Z" fill="#CCCCCC"/>
<path d="M66.9095 29.3085C66.6098 30.6989 66.2313 31.0299 65.8727 30.935C65.5142 30.8401 65.3115 30.3554 65.6111 28.965C65.9108 27.5746 66.9579 25.8999 66.9579 25.8999C66.9579 25.8999 67.2092 27.9181 66.9095 29.3085Z" fill="#CCCCCC"/>
<path d="M66.107 53.5338C65.8073 54.9242 65.4288 55.2552 65.0702 55.1603C64.7117 55.0654 64.509 54.5807 64.8086 53.1903C65.1083 51.7999 66.1554 50.1252 66.1554 50.1252C66.1554 50.1252 66.4067 52.1434 66.107 53.5338Z" fill="#CCCCCC"/>
<path d="M67.4189 43.6297C67.236 44.4782 67.005 44.6801 66.7862 44.6222C66.5675 44.5643 66.4437 44.2685 66.6266 43.4201C66.8095 42.5717 67.4484 41.5498 67.4484 41.5498C67.4484 41.5498 67.6017 42.7813 67.4189 43.6297Z" fill="#CCCCCC"/>
<path d="M81.1509 33.9758C80.8513 35.3662 80.4727 35.6972 80.1142 35.6023C79.7557 35.5074 79.5529 35.0227 79.8526 33.6323C80.1522 32.2419 81.1994 30.5672 81.1994 30.5672C81.1994 30.5672 81.4506 32.5854 81.1509 33.9758Z" fill="#CCCCCC"/>
<path d="M76.746 28.1833C76.5631 29.0317 76.3322 29.2337 76.1134 29.1758C75.8946 29.1179 75.7709 28.8221 75.9537 27.9737C76.1366 27.1253 76.7756 26.1034 76.7756 26.1034C76.7756 26.1034 76.9289 27.3349 76.746 28.1833Z" fill="#CCCCCC"/>
<path d="M47.6732 47.9007C50.4981 47.9007 52.7881 45.3634 52.7881 42.2334C52.7881 39.1034 50.4981 36.566 47.6732 36.566C44.8484 36.566 42.5583 39.1034 42.5583 42.2334C42.5583 45.3634 44.8484 47.9007 47.6732 47.9007Z" fill="#C9070C"/>
<path d="M43.5576 44.6125C43.226 44.6022 42.8133 44.5894 42.4956 44.3322C42.4009 44.2524 42.3231 44.1507 42.2677 44.0341C42.2122 43.9175 42.1805 43.7889 42.1746 43.6573C42.1689 43.5638 42.1827 43.4701 42.2151 43.3835C42.2475 43.2969 42.2975 43.2197 42.3612 43.1581C42.5272 43.0026 42.7697 42.9661 43.031 43.0513L42.7603 40.8592L42.959 40.829L43.2772 43.4061L43.1113 43.3217C42.9189 43.224 42.6549 43.1742 42.4907 43.3278C42.4504 43.368 42.419 43.4179 42.3989 43.4737C42.3789 43.5295 42.3707 43.5896 42.3751 43.6495C42.3799 43.7474 42.4038 43.8431 42.445 43.9299C42.4862 44.0168 42.5438 44.0927 42.6139 44.1527C42.8611 44.3529 43.1901 44.3787 43.5632 44.3904L43.5576 44.6125Z" fill="#2F2E41"/>
<path d="M45.1872 41.0482H44.1069V41.2705H45.1872V41.0482Z" fill="#2F2E41"/>
<path d="M48.0311 36.5492C48.0687 35.8793 48.2358 35.2261 48.5211 34.634C48.8064 34.0418 49.2032 33.5245 49.6846 33.117C50.182 32.7089 50.756 32.4303 51.364 32.3018C51.972 32.1733 52.5982 32.1983 53.1963 32.3749C53.7905 32.546 54.3419 32.8644 54.8089 33.3059C55.276 33.7475 55.6464 34.3007 55.8924 34.924C56.14 35.5426 56.2635 36.2134 56.2545 36.8901C56.2272 37.6259 56.0622 38.3474 55.77 39.0089C55.4684 39.737 55.088 40.4201 54.7576 41.1319C54.4322 41.8337 54.1515 42.5599 53.9175 43.3051C53.4413 44.8236 53.1603 46.4087 53.0829 48.0139C52.9601 50.5443 53.1786 54.2385 55.7566 55.2096C56.4122 55.4566 57.1195 55.5026 57.8068 55.5005C58.5307 55.5103 59.2528 55.4166 59.9551 55.2217C61.1722 54.8616 62.3276 54.0161 62.8462 52.7023C62.9657 52.3989 63.0458 52.0783 63.0841 51.7501C63.0949 51.6601 63.0073 51.5842 62.9337 51.5834C62.8941 51.5844 62.8564 51.6023 62.8284 51.6334C62.8004 51.6644 62.7842 51.7062 62.7833 51.7501C62.6154 53.15 61.5626 54.2236 60.4195 54.7062C59.7516 54.9745 59.0498 55.1249 58.3398 55.152C57.6332 55.1915 56.8994 55.1854 56.2074 55.0052C55.5915 54.8575 55.031 54.5046 54.6014 53.9937C54.2184 53.5051 53.9327 52.9325 53.763 52.3132C53.3561 50.9369 53.3134 49.4237 53.3849 47.9893C53.4659 46.3893 53.7528 44.8104 54.2372 43.3005C54.4818 42.5382 54.777 41.7969 55.1201 41.0827C55.4554 40.3841 55.8276 39.7053 56.11 38.9772C56.3857 38.3079 56.5373 37.5841 56.5558 36.8488C56.558 36.1696 56.436 35.497 56.1972 34.8715C55.9624 34.2435 55.6104 33.6777 55.1642 33.2111C54.7181 32.7446 54.188 32.3878 53.6086 32.1644C53.0192 31.937 52.3933 31.8488 51.7713 31.9052C51.1492 31.9617 50.5447 32.1616 49.9965 32.4922C49.475 32.8244 49.0181 33.2677 48.6522 33.7967C48.2864 34.3257 48.0187 34.9298 47.8648 35.574C47.79 35.8932 47.7449 36.2199 47.7302 36.5492C47.7203 36.7636 48.0212 36.763 48.0311 36.5492Z" fill="#2F2E41"/>
<path d="M49.0314 36.6663C49.1135 36.048 49.3931 35.4828 49.8194 35.0736C50.2725 34.6528 50.8533 34.4391 51.4436 34.4762C51.6372 34.4869 51.6366 34.1535 51.4436 34.1428C50.8021 34.1108 50.1723 34.3411 49.674 34.7901C49.1757 35.239 48.8438 35.8752 48.7413 36.5777C48.7124 36.7876 49.0022 36.878 49.0314 36.6663Z" fill="#2F2E41"/>
<path d="M48.9826 37.0215L47.554 36.4989C47.4278 36.4527 47.3232 36.3528 47.2634 36.2212C47.2036 36.0896 47.1934 35.937 47.2351 35.7971C47.2768 35.6572 47.3669 35.5413 47.4857 35.475C47.6045 35.4088 47.7422 35.3975 47.8685 35.4437L49.297 35.9663C49.4233 36.0125 49.5279 36.1124 49.5877 36.244C49.6475 36.3756 49.6577 36.5282 49.616 36.6681C49.5743 36.8081 49.4841 36.9239 49.3653 36.9902C49.2465 37.0565 49.1089 37.0677 48.9826 37.0215Z" fill="#2F2E41"/>
<path d="M51.2977 68.5914H41.8914C41.7186 68.5912 41.5529 68.515 41.4307 68.3796C41.3084 68.2442 41.2397 68.0606 41.2395 67.8691V66.229C41.2397 66.0375 41.3084 65.8539 41.4307 65.7185C41.5529 65.583 41.7186 65.5069 41.8914 65.5067H51.2977C51.4706 65.5069 51.6363 65.583 51.7585 65.7185C51.8807 65.8539 51.9494 66.0375 51.9496 66.229V67.8691C51.9494 68.0606 51.8807 68.2442 51.7585 68.3796C51.6363 68.515 51.4706 68.5912 51.2977 68.5914Z" fill="#CCCCCC"/>
<path d="M53.3018 66.1089C53.2971 66.1089 53.2924 66.1089 53.2877 66.1088L40.1343 65.8019C40.0375 65.7997 39.9424 65.7736 39.8559 65.7255C39.7694 65.6775 39.6936 65.6087 39.634 65.5241C39.5745 65.4396 39.5327 65.3414 39.5117 65.2367C39.4906 65.132 39.4909 65.0235 39.5125 64.919L42.715 49.3836C42.7473 49.2238 42.828 49.081 42.9436 48.9789C43.0591 48.8768 43.2027 48.8215 43.3505 48.8221H45.4944C47.0043 48.8279 48.4669 49.4065 49.6387 50.4614C50.8106 51.5164 51.6211 52.9842 51.9353 54.6206L53.9396 65.2387C53.9594 65.3438 53.9578 65.4525 53.935 65.5568C53.9122 65.6612 53.8686 65.7586 53.8075 65.8419C53.7464 65.9253 53.6694 65.9925 53.5819 66.0387C53.4944 66.0849 53.3987 66.1089 53.3018 66.1089Z" fill="#2F2E41"/>
<path d="M44.8511 57.3199C44.6797 57.3202 44.5151 57.2454 44.3931 57.1119L35.615 47.5063C35.5541 47.4396 35.5056 47.3603 35.4723 47.2729C35.4391 47.1855 35.4217 47.0917 35.4212 46.9969C35.4206 46.902 35.437 46.808 35.4692 46.7201C35.5015 46.6322 35.5491 46.5523 35.6092 46.4848L36.6494 45.3177C36.7709 45.1815 36.9362 45.1042 37.1091 45.103C37.282 45.1019 37.4482 45.1768 37.5713 45.3114L46.3494 54.9169C46.4722 55.0517 46.5418 55.2349 46.5429 55.4264C46.544 55.6179 46.4765 55.8021 46.3552 55.9385L45.315 57.1055C45.2544 57.1735 45.1822 57.2276 45.1025 57.2644C45.0229 57.3012 44.9374 57.32 44.8511 57.3199Z" fill="#C9070C"/>
<path d="M44.4452 57.6108L40.5853 53.4377C40.465 53.3075 40.3944 53.131 40.3884 52.9448C40.3823 52.7585 40.4412 52.5769 40.5528 52.4375L42.1775 50.4084C42.2417 50.3283 42.3211 50.2649 42.41 50.2228C42.499 50.1807 42.5952 50.161 42.6918 50.1651C42.7885 50.1691 42.8831 50.1969 42.9689 50.2463C43.0547 50.2957 43.1296 50.3656 43.1881 50.4509L47.3182 55.1148C47.4339 55.2579 47.4938 55.446 47.4847 55.6379C47.4756 55.8298 47.3982 56.0098 47.2696 56.1387L45.3703 57.6651C45.2411 57.7937 45.0711 57.8602 44.8976 57.85C44.7242 57.8398 44.5615 57.7538 44.4452 57.6108Z" fill="#2F2E41"/>
<path d="M81.6271 78.2113H7.58216C7.56645 78.2113 7.55089 78.2079 7.53636 78.2013C7.52183 78.1947 7.50863 78.185 7.4975 78.1727C7.48638 78.1604 7.47755 78.1458 7.47153 78.1297C7.4655 78.1136 7.4624 78.0964 7.4624 78.079C7.4624 78.0616 7.4655 78.0443 7.47153 78.0282C7.47755 78.0122 7.48638 77.9976 7.4975 77.9853C7.50863 77.973 7.52183 77.9632 7.53636 77.9566C7.55089 77.95 7.56645 77.9466 7.58216 77.9467H81.6271C81.6428 77.9466 81.6583 77.95 81.6729 77.9566C81.6874 77.9632 81.7006 77.973 81.7117 77.9853C81.7229 77.9976 81.7317 78.0122 81.7377 78.0282C81.7437 78.0443 81.7468 78.0616 81.7468 78.079C81.7468 78.0964 81.7437 78.1136 81.7377 78.1297C81.7317 78.1458 81.7229 78.1604 81.7117 78.1727C81.7006 78.185 81.6874 78.1947 81.6729 78.2013C81.6583 78.2079 81.6428 78.2113 81.6271 78.2113Z" fill="#3F3D56"/>
</svg>
